<svg width="536" height="300" viewBox="0 0 536 300" fill="none" xmlns="http://www.w3.org/2000/svg">
<rect y="248" width="159.475" height="51.9912" rx="10" fill="#2E2E46"/>
<path d="M104.217 273.087V275.693H102.584V277.402H104.217V283.207C104.217 285.19 105.114 285.983 107.37 285.983C107.766 285.983 108.144 285.936 108.474 285.879V284.189C108.191 284.218 108.012 284.236 107.7 284.236C106.69 284.236 106.246 283.764 106.246 282.688V277.402H108.474V275.693H106.246V273.087H104.217Z" fill="white"/>
<path d="M114.222 286.125C117.224 286.125 119.065 284.114 119.065 280.781C119.065 277.468 117.215 275.447 114.222 275.447C111.22 275.447 109.37 277.468 109.37 280.781C109.37 284.114 111.211 286.125 114.222 286.125ZM114.222 284.321C112.457 284.321 111.466 283.028 111.466 280.781C111.466 278.553 112.457 277.25 114.222 277.25C115.978 277.25 116.979 278.553 116.979 280.781C116.979 283.019 115.978 284.321 114.222 284.321Z" fill="white"/>
<path d="M120.64 285.926H122.67V279.856C122.67 278.412 123.756 277.439 125.294 277.439C125.653 277.439 126.257 277.505 126.427 277.562V275.561C126.21 275.504 125.823 275.476 125.521 275.476C124.18 275.476 123.038 276.212 122.745 277.222H122.594V275.646H120.64V285.926Z" fill="white"/>
<path d="M131.467 277.175C132.968 277.175 133.95 278.223 133.997 279.837H128.805C128.918 278.232 129.966 277.175 131.467 277.175ZM133.988 283.151C133.61 283.953 132.77 284.397 131.543 284.397C129.919 284.397 128.871 283.255 128.805 281.452V281.338H136.065V280.63C136.065 277.402 134.337 275.447 131.476 275.447C128.578 275.447 126.737 277.534 126.737 280.819C126.737 284.104 128.54 286.125 131.486 286.125C133.837 286.125 135.479 284.992 135.942 283.151H133.988Z" fill="white"/>
<path d="M90.9062 282.13C91.0627 284.654 93.1665 286.269 96.2976 286.269C99.644 286.269 101.738 284.576 101.738 281.875C101.738 279.752 100.544 278.578 97.6479 277.903L96.0921 277.521C94.2526 277.091 93.5089 276.513 93.5089 275.505C93.5089 274.233 94.6636 273.402 96.3955 273.402C98.0393 273.402 99.1744 274.214 99.3798 275.515H101.513C101.386 273.138 99.2918 271.464 96.4248 271.464C93.3426 271.464 91.2878 273.138 91.2878 275.652C91.2878 277.727 92.4522 278.96 95.006 279.556L96.826 279.997C98.6949 280.437 99.5168 281.083 99.5168 282.159C99.5168 283.412 98.2252 284.322 96.464 284.322C94.5755 284.322 93.2643 283.47 93.0784 282.13H90.9062Z" fill="white"/>
<path d="M69.8804 275.476C68.4832 275.476 67.2748 276.174 66.6517 277.345H66.5007V275.646H64.5465V289.344H66.5762V284.369H66.7367C67.2748 285.454 68.436 286.096 69.8993 286.096C72.4954 286.096 74.1475 284.048 74.1475 280.781C74.1475 277.515 72.4954 275.476 69.8804 275.476ZM69.3045 284.274C67.6052 284.274 66.5385 282.934 66.5385 280.791C66.5385 278.638 67.6052 277.298 69.314 277.298C71.0321 277.298 72.0612 278.61 72.0612 280.781C72.0612 282.962 71.0321 284.274 69.3045 284.274Z" fill="white"/>
<path d="M81.2498 275.476C79.8526 275.476 78.6442 276.174 78.0212 277.345H77.8701V275.646H75.9159V289.344H77.9456V284.369H78.1061C78.6442 285.454 79.8054 286.096 81.2687 286.096C83.8649 286.096 85.5169 284.048 85.5169 280.781C85.5169 277.515 83.8649 275.476 81.2498 275.476ZM80.674 284.274C78.9747 284.274 77.9079 282.934 77.9079 280.791C77.9079 278.638 78.9747 277.298 80.6834 277.298C82.4016 277.298 83.4306 278.61 83.4306 280.781C83.4306 282.962 82.4016 284.274 80.674 284.274Z" fill="white"/>
<path d="M60.9048 285.926H63.2336L58.1357 271.807H55.7776L50.6797 285.926H52.9302L54.2316 282.179H59.6132L60.9048 285.926ZM56.8441 274.37H57.0105L59.0555 280.339H54.7893L56.8441 274.37Z" fill="white"/>
<path d="M52.0469 261.156V267.967H54.5061C56.5358 267.967 57.7112 266.716 57.7112 264.54C57.7112 262.397 56.5264 261.156 54.5061 261.156H52.0469ZM53.1042 262.119H54.3881C55.7995 262.119 56.635 263.016 56.635 264.555C56.635 266.117 55.8136 267.004 54.3881 267.004H53.1042V262.119Z" fill="white"/>
<path d="M61.3109 268.066C62.8119 268.066 63.7324 267.061 63.7324 265.395C63.7324 263.738 62.8072 262.728 61.3109 262.728C59.8098 262.728 58.8847 263.738 58.8847 265.395C58.8847 267.061 59.8051 268.066 61.3109 268.066ZM61.3109 267.165C60.4282 267.165 59.9326 266.518 59.9326 265.395C59.9326 264.281 60.4282 263.629 61.3109 263.629C62.1888 263.629 62.6892 264.281 62.6892 265.395C62.6892 266.513 62.1888 267.165 61.3109 267.165Z" fill="white"/>
<path d="M71.5708 262.827H70.556L69.6403 266.749H69.56L68.5027 262.827H67.5303L66.473 266.749H66.3974L65.477 262.827H64.448L65.864 267.967H66.9072L67.9646 264.182H68.0448L69.1069 267.967H70.1595L71.5708 262.827Z" fill="white"/>
<path d="M72.7396 267.967H73.7544V264.96C73.7544 264.158 74.2312 263.658 74.9817 263.658C75.7322 263.658 76.091 264.068 76.091 264.894V267.967H77.1058V264.639C77.1058 263.417 76.4733 262.728 75.3263 262.728C74.5522 262.728 74.0424 263.072 73.7922 263.644H73.7167V262.827H72.7396V267.967Z" fill="white"/>
<path d="M78.7041 267.967H79.719V260.821H78.7041V267.967Z" fill="white"/>
<path d="M83.5358 268.066C85.0368 268.066 85.9573 267.061 85.9573 265.395C85.9573 263.738 85.0321 262.728 83.5358 262.728C82.0347 262.728 81.1096 263.738 81.1096 265.395C81.1096 267.061 82.03 268.066 83.5358 268.066ZM83.5358 267.165C82.6531 267.165 82.1575 266.518 82.1575 265.395C82.1575 264.281 82.6531 263.629 83.5358 263.629C84.4137 263.629 84.9141 264.281 84.9141 265.395C84.9141 266.513 84.4137 267.165 83.5358 267.165Z" fill="white"/>
<path d="M88.9811 267.198C88.4288 267.198 88.0276 266.929 88.0276 266.466C88.0276 266.013 88.3486 265.772 89.0566 265.725L90.3122 265.645V266.074C90.3122 266.712 89.7458 267.198 88.9811 267.198ZM88.7215 268.052C89.3965 268.052 89.9582 267.76 90.265 267.245H90.3452V267.967H91.3223V264.455C91.3223 263.37 90.5954 262.728 89.3068 262.728C88.1409 262.728 87.3101 263.294 87.2063 264.177H88.1881C88.3014 263.813 88.6931 263.606 89.2596 263.606C89.9535 263.606 90.3122 263.913 90.3122 264.455V264.899L88.9197 264.979C87.6972 265.055 87.008 265.588 87.008 266.513C87.008 267.453 87.7302 268.052 88.7215 268.052Z" fill="white"/>
<path d="M94.7662 268.052C95.4743 268.052 96.0738 267.717 96.3806 267.155H96.4608V267.967H97.4332V260.821H96.4183V263.644H96.3428C96.0643 263.077 95.4696 262.742 94.7662 262.742C93.4682 262.742 92.6327 263.771 92.6327 265.395C92.6327 267.023 93.4587 268.052 94.7662 268.052ZM95.0542 263.653C95.9038 263.653 96.4372 264.328 96.4372 265.399C96.4372 266.476 95.9085 267.141 95.0542 267.141C94.1951 267.141 93.6806 266.485 93.6806 265.395C93.6806 264.314 94.1998 263.653 95.0542 263.653Z" fill="white"/>
<path d="M104.014 268.066C105.515 268.066 106.436 267.061 106.436 265.395C106.436 263.738 105.511 262.728 104.014 262.728C102.513 262.728 101.588 263.738 101.588 265.395C101.588 267.061 102.508 268.066 104.014 268.066ZM104.014 267.165C103.131 267.165 102.636 266.518 102.636 265.395C102.636 264.281 103.131 263.629 104.014 263.629C104.892 263.629 105.393 264.281 105.393 265.395C105.393 266.513 104.892 267.165 104.014 267.165Z" fill="white"/>
<path d="M107.779 267.967H108.794V264.96C108.794 264.158 109.271 263.658 110.021 263.658C110.772 263.658 111.13 264.068 111.13 264.894V267.967H112.145V264.639C112.145 263.417 111.513 262.728 110.366 262.728C109.592 262.728 109.082 263.072 108.832 263.644H108.756V262.827H107.779V267.967Z" fill="white"/>
<path d="M116.819 261.548V262.851H116.003V263.705H116.819V266.608C116.819 267.599 117.268 267.996 118.396 267.996C118.594 267.996 118.783 267.972 118.948 267.944V267.099C118.807 267.113 118.717 267.122 118.561 267.122C118.056 267.122 117.834 266.886 117.834 266.348V263.705H118.948V262.851H117.834V261.548H116.819Z" fill="white"/>
<path d="M120.31 267.967H121.325V264.965C121.325 264.186 121.788 263.662 122.619 263.662C123.336 263.662 123.718 264.078 123.718 264.899V267.967H124.733V264.649C124.733 263.426 124.058 262.733 122.963 262.733C122.189 262.733 121.646 263.077 121.396 263.653H121.316V260.821H120.31V267.967Z" fill="white"/>
<path d="M128.394 263.592C129.145 263.592 129.636 264.116 129.659 264.923H127.063C127.12 264.12 127.644 263.592 128.394 263.592ZM129.655 266.58C129.466 266.981 129.046 267.203 128.432 267.203C127.62 267.203 127.096 266.631 127.063 265.73V265.673H130.693V265.319C130.693 263.705 129.829 262.728 128.399 262.728C126.95 262.728 126.03 263.771 126.03 265.414C126.03 267.056 126.931 268.066 128.404 268.066C129.579 268.066 130.4 267.5 130.632 266.58H129.655Z" fill="white"/>
<path d="M39.6689 274.337C39.6936 272.425 40.7203 270.616 42.3491 269.615C41.3215 268.147 39.6005 267.217 37.8099 267.161C35.9001 266.96 34.0486 268.304 33.0754 268.304C32.0834 268.304 30.585 267.181 28.9714 267.214C26.8683 267.282 24.9076 268.478 23.8843 270.316C21.6848 274.125 23.3255 279.721 25.4324 282.8C26.4866 284.307 27.7186 285.991 29.3307 285.931C30.9082 285.865 31.4974 284.925 33.4016 284.925C35.2881 284.925 35.8409 285.931 37.4857 285.893C39.1784 285.865 40.2449 284.379 41.2621 282.857C42.0195 281.783 42.6023 280.596 42.989 279.34C40.9997 278.499 39.6712 276.497 39.6689 274.337Z" fill="white"/>
<path d="M36.5622 265.136C37.4851 264.028 37.9398 262.604 37.8297 261.167C36.4197 261.315 35.1172 261.989 34.1817 263.054C33.267 264.095 32.791 265.494 32.881 266.877C34.2916 266.891 35.6783 266.236 36.5622 265.136Z" fill="white"/>
<rect x="186" y="248" width="176.534" height="51.9912" rx="10" fill="#2E2E46"/>
<path d="M274.99 275.987C272.315 275.987 270.135 278.022 270.135 280.824C270.135 283.609 272.315 285.661 274.99 285.661C277.666 285.661 279.846 283.609 279.846 280.824C279.845 278.022 277.665 275.987 274.99 275.987ZM274.99 283.757C273.524 283.757 272.26 282.548 272.26 280.825C272.26 279.084 273.525 277.893 274.99 277.893C276.456 277.893 277.72 279.084 277.72 280.825C277.72 282.547 276.456 283.757 274.99 283.757ZM264.397 275.987C261.722 275.987 259.542 278.022 259.542 280.824C259.542 283.609 261.722 285.661 264.397 285.661C267.073 285.661 269.253 283.609 269.253 280.824C269.253 278.022 267.073 275.987 264.397 275.987ZM264.397 283.757C262.931 283.757 261.668 282.548 261.668 280.825C261.668 279.084 262.932 277.893 264.397 277.893C265.863 277.893 267.127 279.084 267.127 280.825C267.128 282.547 265.863 283.757 264.397 283.757ZM251.798 277.472V279.524H256.709C256.562 280.678 256.178 281.521 255.591 282.107C254.877 282.821 253.759 283.609 251.798 283.609C248.775 283.609 246.412 281.172 246.412 278.149C246.412 275.126 248.775 272.689 251.798 272.689C253.429 272.689 254.62 273.33 255.499 274.155L256.947 272.707C255.718 271.535 254.089 270.637 251.798 270.637C247.657 270.637 244.176 274.008 244.176 278.149C244.176 282.29 247.657 285.661 251.798 285.661C254.033 285.661 255.719 284.927 257.038 283.554C258.393 282.198 258.815 280.292 258.815 278.753C258.815 278.278 258.779 277.837 258.705 277.471H251.798V277.472ZM303.327 279.066C302.925 277.985 301.696 275.987 299.186 275.987C296.694 275.987 294.623 277.948 294.623 280.824C294.623 283.535 296.676 285.661 299.424 285.661C301.64 285.661 302.923 284.305 303.456 283.517L301.807 282.417C301.257 283.224 300.505 283.755 299.424 283.755C298.343 283.755 297.573 283.26 297.079 282.289L303.547 279.614L303.327 279.066ZM296.731 280.678C296.676 278.809 298.179 277.857 299.26 277.857C300.103 277.857 300.817 278.279 301.056 278.883L296.731 280.678ZM291.473 285.369H293.597V271.151H291.473V285.369ZM287.991 277.069H287.918C287.441 276.5 286.525 275.987 285.371 275.987C282.952 275.987 280.736 278.113 280.736 280.843C280.736 283.555 282.952 285.662 285.371 285.662C286.526 285.662 287.441 285.149 287.918 284.564H287.991V285.26C287.991 287.11 287.001 288.099 285.408 288.099C284.107 288.099 283.3 287.166 282.97 286.378L281.12 287.147C281.651 288.429 283.061 290.006 285.408 290.006C287.9 290.006 290.007 288.54 290.007 284.966V276.282H287.992V277.069H287.991ZM285.554 283.757C284.088 283.757 282.861 282.529 282.861 280.843C282.861 279.139 284.088 277.893 285.554 277.893C287.001 277.893 288.137 279.139 288.137 280.843C288.137 282.529 287.001 283.757 285.554 283.757ZM313.283 271.151H308.198V285.369H310.319V279.982H313.282C315.634 279.982 317.947 278.28 317.947 275.567C317.947 272.855 315.635 271.151 313.283 271.151ZM313.338 278.004H310.319V273.13H313.338C314.924 273.13 315.825 274.444 315.825 275.567C315.825 276.668 314.924 278.004 313.338 278.004ZM326.453 275.962C324.917 275.962 323.326 276.639 322.667 278.139L324.55 278.925C324.953 278.139 325.704 277.882 326.49 277.882C327.587 277.882 328.703 278.54 328.721 279.711V279.857C328.336 279.638 327.513 279.309 326.508 279.309C324.478 279.309 322.41 280.425 322.41 282.51C322.41 284.412 324.075 285.637 325.94 285.637C327.366 285.637 328.153 284.997 328.647 284.246H328.72V285.344H330.769V279.893C330.77 277.37 328.885 275.962 326.453 275.962ZM326.196 283.754C325.502 283.754 324.532 283.406 324.532 282.546C324.532 281.448 325.74 281.028 326.783 281.028C327.714 281.028 328.155 281.229 328.721 281.503C328.556 282.821 327.422 283.754 326.196 283.754ZM338.232 276.273L335.8 282.437H335.727L333.202 276.273H330.916L334.702 284.888L332.543 289.68H334.757L340.592 276.273H338.232ZM319.119 285.369H321.24V271.151H319.119V285.369Z" fill="white"/>
<path fill-rule="evenodd" clip-rule="evenodd" d="M278.713 258.986C277.697 258.986 276.844 259.339 276.16 260.043C275.476 260.746 275.135 261.608 275.135 262.624C275.135 263.639 275.476 264.501 276.16 265.204C276.844 265.908 277.697 266.26 278.713 266.26C279.729 266.26 280.582 265.908 281.267 265.204C281.95 264.501 282.293 263.639 282.293 262.624C282.293 261.614 281.949 260.754 281.262 260.047C280.575 259.34 279.724 258.986 278.713 258.986ZM276.174 262.624C276.174 261.847 276.422 261.213 276.911 260.716C277.402 260.219 278.001 259.971 278.713 259.971C279.426 259.971 280.026 260.218 280.516 260.716C281.006 261.213 281.253 261.847 281.253 262.624C281.253 263.4 281.006 264.034 280.516 264.531C280.026 265.028 279.426 265.276 278.713 265.276C278.001 265.276 277.402 265.029 276.911 264.531C276.422 264.034 276.174 263.4 276.174 262.624Z" fill="white"/>
<path d="M248.074 258.988C247.071 258.988 246.214 259.337 245.512 260.034C244.809 260.73 244.457 261.595 244.457 262.625C244.457 263.653 244.809 264.518 245.512 265.215C246.214 265.912 247.071 266.26 248.074 266.26C249.119 266.26 249.976 265.917 250.633 265.228C251.213 264.646 251.5 263.868 251.5 262.9C251.5 262.731 251.485 262.554 251.45 262.371L251.439 262.312H248.001V263.277H250.472C250.412 263.817 250.229 264.234 249.928 264.535C249.434 265.029 248.817 265.276 248.073 265.276C247.373 265.276 246.77 265.031 246.259 264.539C245.751 264.049 245.495 263.413 245.495 262.623C245.495 261.834 245.751 261.198 246.259 260.708C246.77 260.216 247.373 259.971 248.073 259.971C248.85 259.971 249.45 260.233 249.886 260.755L249.937 260.815L250.639 260.112L250.596 260.061C250.322 259.734 249.956 259.474 249.503 259.279C249.05 259.086 248.573 258.988 248.074 258.988Z" fill="white"/>
<path d="M256.743 259.139H252.615V266.108H256.743V265.124H253.636V263.105H256.439V262.141H253.636V260.122H256.743V259.139Z" fill="white"/>
<path d="M262.347 259.139H257.513V260.122H259.419V266.108H260.441V260.122H262.347V259.139Z" fill="white"/>
<path d="M266.616 259.139H265.595V266.108H266.616V259.139Z" fill="white"/>
<path d="M272.411 259.139H267.577V260.122H269.484V266.108H270.505V260.122H272.411V259.139Z" fill="white"/>
<path d="M284.558 259.139H283.379V266.108H284.398L284.398 261.784L284.366 260.671L287.756 266.108H288.783V259.139H287.762V263.205L287.762 263.207L287.794 264.318L284.558 259.139Z" fill="white"/>
<g filter="url(#filter0_ii_3119_5173)">
<path d="M209.366 259.821C209.035 260.172 208.84 260.715 208.84 261.419V286.572C208.84 287.277 209.035 287.82 209.366 288.17L209.451 288.252L223.541 274.162V273.996V273.83L209.451 259.738L209.366 259.821Z" fill="url(#paint0_linear_3119_5173)"/>
<path d="M228.235 278.86L223.539 274.162V273.996V273.83L228.236 269.133L228.342 269.193L233.907 272.355C235.496 273.258 235.496 274.735 233.907 275.639L228.342 278.801L228.235 278.86Z" fill="url(#paint1_linear_3119_5173)"/>
<g filter="url(#filter1_i_3119_5173)">
<path d="M228.344 278.801L223.54 273.997L209.367 288.171C209.89 288.726 210.756 288.794 211.731 288.241L228.344 278.801Z" fill="url(#paint2_linear_3119_5173)"/>
</g>
<path d="M228.344 269.192L211.731 259.752C210.756 259.198 209.89 259.268 209.367 259.823L223.541 273.997L228.344 269.192Z" fill="url(#paint3_linear_3119_5173)"/>
</g>
<path d="M7.074 180.126C5.91 180.126 4.848 179.856 3.888 179.316C2.928 178.764 2.166 178.002 1.602 177.03C1.05 176.046 0.774 174.942 0.774 173.718C0.774 172.494 1.05 171.396 1.602 170.424C2.166 169.44 2.928 168.678 3.888 168.138C4.848 167.586 5.91 167.31 7.074 167.31C8.25 167.31 9.318 167.586 10.278 168.138C11.238 168.678 11.994 169.434 12.546 170.406C13.098 171.378 13.374 172.482 13.374 173.718C13.374 174.954 13.098 176.058 12.546 177.03C11.994 178.002 11.238 178.764 10.278 179.316C9.318 179.856 8.25 180.126 7.074 180.126ZM7.074 178.704C7.95 178.704 8.736 178.5 9.432 178.092C10.14 177.684 10.692 177.102 11.088 176.346C11.496 175.59 11.7 174.714 11.7 173.718C11.7 172.71 11.496 171.834 11.088 171.09C10.692 170.334 10.146 169.752 9.45 169.344C8.754 168.936 7.962 168.732 7.074 168.732C6.186 168.732 5.394 168.936 4.698 169.344C4.002 169.752 3.45 170.334 3.042 171.09C2.646 171.834 2.448 172.71 2.448 173.718C2.448 174.714 2.646 175.59 3.042 176.346C3.45 177.102 4.002 177.684 4.698 178.092C5.406 178.5 6.198 178.704 7.074 178.704ZM20.3424 169.956C21.5424 169.956 22.5144 170.322 23.2584 171.054C24.0024 171.774 24.3744 172.818 24.3744 174.186V180H22.7544V174.42C22.7544 173.436 22.5084 172.686 22.0164 172.17C21.5244 171.642 20.8524 171.378 20.0004 171.378C19.1364 171.378 18.4464 171.648 17.9304 172.188C17.4264 172.728 17.1744 173.514 17.1744 174.546V180H15.5364V170.136H17.1744V171.54C17.4984 171.036 17.9364 170.646 18.4884 170.37C19.0524 170.094 19.6704 169.956 20.3424 169.956ZM28.6881 166.68V180H27.0501V166.68H28.6881ZM32.3258 168.534C32.0138 168.534 31.7498 168.426 31.5338 168.21C31.3178 167.994 31.2098 167.73 31.2098 167.418C31.2098 167.106 31.3178 166.842 31.5338 166.626C31.7498 166.41 32.0138 166.302 32.3258 166.302C32.6258 166.302 32.8778 166.41 33.0818 166.626C33.2978 166.842 33.4058 167.106 33.4058 167.418C33.4058 167.73 33.2978 167.994 33.0818 168.21C32.8778 168.426 32.6258 168.534 32.3258 168.534ZM33.1178 170.136V180H31.4798V170.136H33.1178ZM40.7154 169.956C41.9154 169.956 42.8874 170.322 43.6314 171.054C44.3754 171.774 44.7474 172.818 44.7474 174.186V180H43.1274V174.42C43.1274 173.436 42.8814 172.686 42.3894 172.17C41.8974 171.642 41.2254 171.378 40.3734 171.378C39.5094 171.378 38.8194 171.648 38.3034 172.188C37.7994 172.728 37.5474 173.514 37.5474 174.546V180H35.9094V170.136H37.5474V171.54C37.8714 171.036 38.3094 170.646 38.8614 170.37C39.4254 170.094 40.0434 169.956 40.7154 169.956ZM56.4231 174.69C56.4231 175.002 56.4051 175.332 56.3691 175.68H48.4851C48.5451 176.652 48.8751 177.414 49.4751 177.966C50.0871 178.506 50.8251 178.776 51.6891 178.776C52.3971 178.776 52.9851 178.614 53.4531 178.29C53.9331 177.954 54.2691 177.51 54.4611 176.958H56.2251C55.9611 177.906 55.4331 178.68 54.6411 179.28C53.8491 179.868 52.8651 180.162 51.6891 180.162C50.7531 180.162 49.9131 179.952 49.1691 179.532C48.4371 179.112 47.8611 178.518 47.4411 177.75C47.0211 176.97 46.8111 176.07 46.8111 175.05C46.8111 174.03 47.0151 173.136 47.4231 172.368C47.8311 171.6 48.4011 171.012 49.1331 170.604C49.8771 170.184 50.7291 169.974 51.6891 169.974C52.6251 169.974 53.4531 170.178 54.1731 170.586C54.8931 170.994 55.4451 171.558 55.8291 172.278C56.2251 172.986 56.4231 173.79 56.4231 174.69ZM54.7311 174.348C54.7311 173.724 54.5931 173.19 54.3171 172.746C54.0411 172.29 53.6631 171.948 53.1831 171.72C52.7151 171.48 52.1931 171.36 51.6171 171.36C50.7891 171.36 50.0811 171.624 49.4931 172.152C48.9171 172.68 48.5871 173.412 48.5031 174.348H54.7311ZM67.686 180.162C66.762 180.162 65.922 179.952 65.166 179.532C64.422 179.112 63.834 178.518 63.402 177.75C62.982 176.97 62.772 176.07 62.772 175.05C62.772 174.042 62.988 173.154 63.42 172.386C63.864 171.606 64.464 171.012 65.22 170.604C65.976 170.184 66.822 169.974 67.758 169.974C68.694 169.974 69.54 170.184 70.296 170.604C71.052 171.012 71.646 171.6 72.078 172.368C72.522 173.136 72.744 174.03 72.744 175.05C72.744 176.07 72.516 176.97 72.06 177.75C71.616 178.518 71.01 179.112 70.242 179.532C69.474 179.952 68.622 180.162 67.686 180.162ZM67.686 178.722C68.274 178.722 68.826 178.584 69.342 178.308C69.858 178.032 70.272 177.618 70.584 177.066C70.908 176.514 71.07 175.842 71.07 175.05C71.07 174.258 70.914 173.586 70.602 173.034C70.29 172.482 69.882 172.074 69.378 171.81C68.874 171.534 68.328 171.396 67.74 171.396C67.14 171.396 66.588 171.534 66.084 171.81C65.592 172.074 65.196 172.482 64.896 173.034C64.596 173.586 64.446 174.258 64.446 175.05C64.446 175.854 64.59 176.532 64.878 177.084C65.178 177.636 65.574 178.05 66.066 178.326C66.558 178.59 67.098 178.722 67.686 178.722ZM76.5357 171.738C76.8237 171.174 77.2317 170.736 77.7597 170.424C78.2997 170.112 78.9537 169.956 79.7217 169.956V171.648H79.2897C77.4537 171.648 76.5357 172.644 76.5357 174.636V180H74.8977V170.136H76.5357V171.738ZM81.0006 175.032C81.0006 174.024 81.2046 173.142 81.6126 172.386C82.0206 171.618 82.5786 171.024 83.2866 170.604C84.0066 170.184 84.8106 169.974 85.6986 169.974C86.4666 169.974 87.1806 170.154 87.8406 170.514C88.5006 170.862 89.0046 171.324 89.3526 171.9V166.68H91.0086V180H89.3526V178.146C89.0286 178.734 88.5486 179.22 87.9126 179.604C87.2766 179.976 86.5326 180.162 85.6806 180.162C84.8046 180.162 84.0066 179.946 83.2866 179.514C82.5786 179.082 82.0206 178.476 81.6126 177.696C81.2046 176.916 81.0006 176.028 81.0006 175.032ZM89.3526 175.05C89.3526 174.306 89.2026 173.658 88.9026 173.106C88.6026 172.554 88.1946 172.134 87.6786 171.846C87.1746 171.546 86.6166 171.396 86.0046 171.396C85.3926 171.396 84.8346 171.54 84.3306 171.828C83.8266 172.116 83.4246 172.536 83.1246 173.088C82.8246 173.64 82.6746 174.288 82.6746 175.032C82.6746 175.788 82.8246 176.448 83.1246 177.012C83.4246 177.564 83.8266 177.99 84.3306 178.29C84.8346 178.578 85.3926 178.722 86.0046 178.722C86.6166 178.722 87.1746 178.578 87.6786 178.29C88.1946 177.99 88.6026 177.564 88.9026 177.012C89.2026 176.448 89.3526 175.794 89.3526 175.05ZM102.777 174.69C102.777 175.002 102.759 175.332 102.723 175.68H94.8386C94.8986 176.652 95.2286 177.414 95.8286 177.966C96.4406 178.506 97.1786 178.776 98.0426 178.776C98.7506 178.776 99.3386 178.614 99.8066 178.29C100.287 177.954 100.623 177.51 100.815 176.958H102.579C102.315 177.906 101.787 178.68 100.995 179.28C100.203 179.868 99.2186 180.162 98.0426 180.162C97.1066 180.162 96.2666 179.952 95.5226 179.532C94.7906 179.112 94.2146 178.518 93.7946 177.75C93.3746 176.97 93.1646 176.07 93.1646 175.05C93.1646 174.03 93.3686 173.136 93.7766 172.368C94.1846 171.6 94.7546 171.012 95.4866 170.604C96.2306 170.184 97.0826 169.974 98.0426 169.974C98.9786 169.974 99.8066 170.178 100.527 170.586C101.247 170.994 101.799 171.558 102.183 172.278C102.579 172.986 102.777 173.79 102.777 174.69ZM101.085 174.348C101.085 173.724 100.947 173.19 100.671 172.746C100.395 172.29 100.017 171.948 99.5366 171.72C99.0686 171.48 98.5466 171.36 97.9706 171.36C97.1426 171.36 96.4346 171.624 95.8466 172.152C95.2706 172.68 94.9406 173.412 94.8566 174.348H101.085ZM106.577 171.738C106.865 171.174 107.273 170.736 107.801 170.424C108.341 170.112 108.995 169.956 109.763 169.956V171.648H109.331C107.495 171.648 106.577 172.644 106.577 174.636V180H104.939V170.136H106.577V171.738ZM112.5 168.534C112.188 168.534 111.924 168.426 111.708 168.21C111.492 167.994 111.384 167.73 111.384 167.418C111.384 167.106 111.492 166.842 111.708 166.626C111.924 166.41 112.188 166.302 112.5 166.302C112.8 166.302 113.052 166.41 113.256 166.626C113.472 166.842 113.58 167.106 113.58 167.418C113.58 167.73 113.472 167.994 113.256 168.21C113.052 168.426 112.8 168.534 112.5 168.534ZM113.292 170.136V180H111.654V170.136H113.292ZM120.889 169.956C122.089 169.956 123.061 170.322 123.805 171.054C124.549 171.774 124.921 172.818 124.921 174.186V180H123.301V174.42C123.301 173.436 123.055 172.686 122.563 172.17C122.071 171.642 121.399 171.378 120.547 171.378C119.683 171.378 118.993 171.648 118.477 172.188C117.973 172.728 117.721 173.514 117.721 174.546V180H116.083V170.136H117.721V171.54C118.045 171.036 118.483 170.646 119.035 170.37C119.599 170.094 120.217 169.956 120.889 169.956ZM131.665 169.974C132.517 169.974 133.261 170.16 133.897 170.532C134.545 170.904 135.025 171.372 135.337 171.936V170.136H136.993V180.216C136.993 181.116 136.801 181.914 136.417 182.61C136.033 183.318 135.481 183.87 134.761 184.266C134.053 184.662 133.225 184.86 132.277 184.86C130.981 184.86 129.901 184.554 129.037 183.942C128.173 183.33 127.663 182.496 127.507 181.44H129.127C129.307 182.04 129.679 182.52 130.243 182.88C130.807 183.252 131.485 183.438 132.277 183.438C133.177 183.438 133.909 183.156 134.473 182.592C135.049 182.028 135.337 181.236 135.337 180.216V178.146C135.013 178.722 134.533 179.202 133.897 179.586C133.261 179.97 132.517 180.162 131.665 180.162C130.789 180.162 129.991 179.946 129.271 179.514C128.563 179.082 128.005 178.476 127.597 177.696C127.189 176.916 126.985 176.028 126.985 175.032C126.985 174.024 127.189 173.142 127.597 172.386C128.005 171.618 128.563 171.024 129.271 170.604C129.991 170.184 130.789 169.974 131.665 169.974ZM135.337 175.05C135.337 174.306 135.187 173.658 134.887 173.106C134.587 172.554 134.179 172.134 133.663 171.846C133.159 171.546 132.601 171.396 131.989 171.396C131.377 171.396 130.819 171.54 130.315 171.828C129.811 172.116 129.409 172.536 129.109 173.088C128.809 173.64 128.659 174.288 128.659 175.032C128.659 175.788 128.809 176.448 129.109 177.012C129.409 177.564 129.811 177.99 130.315 178.29C130.819 178.578 131.377 178.722 131.989 178.722C132.601 178.722 133.159 178.578 133.663 178.29C134.179 177.99 134.587 177.564 134.887 177.012C135.187 176.448 135.337 175.794 135.337 175.05ZM149.456 169.956C150.2 169.956 150.872 170.118 151.472 170.442C152.072 170.754 152.54 171.228 152.876 171.864C153.224 172.5 153.398 173.274 153.398 174.186V180H151.778V174.42C151.778 173.436 151.532 172.686 151.04 172.17C150.548 171.642 149.876 171.378 149.024 171.378C148.16 171.378 147.47 171.648 146.954 172.188C146.45 172.728 146.198 173.514 146.198 174.546V180H144.56V166.68H146.198V171.54C146.522 171.036 146.966 170.646 147.53 170.37C148.106 170.094 148.748 169.956 149.456 169.956ZM155.462 175.032C155.462 174.024 155.666 173.142 156.074 172.386C156.482 171.618 157.04 171.024 157.748 170.604C158.468 170.184 159.266 169.974 160.142 169.974C161.006 169.974 161.756 170.16 162.392 170.532C163.028 170.904 163.502 171.372 163.814 171.936V170.136H165.47V180H163.814V178.164C163.49 178.74 163.004 179.22 162.356 179.604C161.72 179.976 160.976 180.162 160.124 180.162C159.248 180.162 158.456 179.946 157.748 179.514C157.04 179.082 156.482 178.476 156.074 177.696C155.666 176.916 155.462 176.028 155.462 175.032ZM163.814 175.05C163.814 174.306 163.664 173.658 163.364 173.106C163.064 172.554 162.656 172.134 162.14 171.846C161.636 171.546 161.078 171.396 160.466 171.396C159.854 171.396 159.296 171.54 158.792 171.828C158.288 172.116 157.886 172.536 157.586 173.088C157.286 173.64 157.136 174.288 157.136 175.032C157.136 175.788 157.286 176.448 157.586 177.012C157.886 177.564 158.288 177.99 158.792 178.29C159.296 178.578 159.854 178.722 160.466 178.722C161.078 178.722 161.636 178.578 162.14 178.29C162.656 177.99 163.064 177.564 163.364 177.012C163.664 176.448 163.814 175.794 163.814 175.05ZM171.73 180.162C170.974 180.162 170.296 180.036 169.696 179.784C169.096 179.52 168.622 179.16 168.274 178.704C167.926 178.236 167.734 177.702 167.698 177.102H169.39C169.438 177.594 169.666 177.996 170.074 178.308C170.494 178.62 171.04 178.776 171.712 178.776C172.336 178.776 172.828 178.638 173.188 178.362C173.548 178.086 173.728 177.738 173.728 177.318C173.728 176.886 173.536 176.568 173.152 176.364C172.768 176.148 172.174 175.938 171.37 175.734C170.638 175.542 170.038 175.35 169.57 175.158C169.114 174.954 168.718 174.66 168.382 174.276C168.058 173.88 167.896 173.364 167.896 172.728C167.896 172.224 168.046 171.762 168.346 171.342C168.646 170.922 169.072 170.592 169.624 170.352C170.176 170.1 170.806 169.974 171.514 169.974C172.606 169.974 173.488 170.25 174.16 170.802C174.832 171.354 175.192 172.11 175.24 173.07H173.602C173.566 172.554 173.356 172.14 172.972 171.828C172.6 171.516 172.096 171.36 171.46 171.36C170.872 171.36 170.404 171.486 170.056 171.738C169.708 171.99 169.534 172.32 169.534 172.728C169.534 173.052 169.636 173.322 169.84 173.538C170.056 173.742 170.32 173.91 170.632 174.042C170.956 174.162 171.4 174.3 171.964 174.456C172.672 174.648 173.248 174.84 173.692 175.032C174.136 175.212 174.514 175.488 174.826 175.86C175.15 176.232 175.318 176.718 175.33 177.318C175.33 177.858 175.18 178.344 174.88 178.776C174.58 179.208 174.154 179.55 173.602 179.802C173.062 180.042 172.438 180.162 171.73 180.162ZM191.441 174.69C191.441 175.002 191.423 175.332 191.387 175.68H183.503C183.563 176.652 183.893 177.414 184.493 177.966C185.105 178.506 185.843 178.776 186.707 178.776C187.415 178.776 188.003 178.614 188.471 178.29C188.951 177.954 189.287 177.51 189.479 176.958H191.243C190.979 177.906 190.451 178.68 189.659 179.28C188.867 179.868 187.883 180.162 186.707 180.162C185.771 180.162 184.931 179.952 184.187 179.532C183.455 179.112 182.879 178.518 182.459 177.75C182.039 176.97 181.829 176.07 181.829 175.05C181.829 174.03 182.033 173.136 182.441 172.368C182.849 171.6 183.419 171.012 184.151 170.604C184.895 170.184 185.747 169.974 186.707 169.974C187.643 169.974 188.471 170.178 189.191 170.586C189.911 170.994 190.463 171.558 190.847 172.278C191.243 172.986 191.441 173.79 191.441 174.69ZM189.749 174.348C189.749 173.724 189.611 173.19 189.335 172.746C189.059 172.29 188.681 171.948 188.201 171.72C187.733 171.48 187.211 171.36 186.635 171.36C185.807 171.36 185.099 171.624 184.511 172.152C183.935 172.68 183.605 173.412 183.521 174.348H189.749ZM198.409 169.956C199.609 169.956 200.581 170.322 201.325 171.054C202.069 171.774 202.441 172.818 202.441 174.186V180H200.821V174.42C200.821 173.436 200.575 172.686 200.083 172.17C199.591 171.642 198.919 171.378 198.067 171.378C197.203 171.378 196.513 171.648 195.997 172.188C195.493 172.728 195.241 173.514 195.241 174.546V180H193.603V170.136H195.241V171.54C195.565 171.036 196.003 170.646 196.555 170.37C197.119 170.094 197.737 169.956 198.409 169.956ZM204.504 175.032C204.504 174.024 204.708 173.142 205.116 172.386C205.524 171.618 206.082 171.024 206.79 170.604C207.51 170.184 208.308 169.974 209.184 169.974C210.048 169.974 210.798 170.16 211.434 170.532C212.07 170.904 212.544 171.372 212.856 171.936V170.136H214.512V180H212.856V178.164C212.532 178.74 212.046 179.22 211.398 179.604C210.762 179.976 210.018 180.162 209.166 180.162C208.29 180.162 207.498 179.946 206.79 179.514C206.082 179.082 205.524 178.476 205.116 177.696C204.708 176.916 204.504 176.028 204.504 175.032ZM212.856 175.05C212.856 174.306 212.706 173.658 212.406 173.106C212.106 172.554 211.698 172.134 211.182 171.846C210.678 171.546 210.12 171.396 209.508 171.396C208.896 171.396 208.338 171.54 207.834 171.828C207.33 172.116 206.928 172.536 206.628 173.088C206.328 173.64 206.178 174.288 206.178 175.032C206.178 175.788 206.328 176.448 206.628 177.012C206.928 177.564 207.33 177.99 207.834 178.29C208.338 178.578 208.896 178.722 209.508 178.722C210.12 178.722 210.678 178.578 211.182 178.29C211.698 177.99 212.106 177.564 212.406 177.012C212.706 176.448 212.856 175.794 212.856 175.05ZM218.919 171.972C219.255 171.384 219.747 170.904 220.395 170.532C221.043 170.16 221.781 169.974 222.609 169.974C223.497 169.974 224.295 170.184 225.003 170.604C225.711 171.024 226.269 171.618 226.677 172.386C227.085 173.142 227.289 174.024 227.289 175.032C227.289 176.028 227.085 176.916 226.677 177.696C226.269 178.476 225.705 179.082 224.985 179.514C224.277 179.946 223.485 180.162 222.609 180.162C221.757 180.162 221.007 179.976 220.359 179.604C219.723 179.232 219.243 178.758 218.919 178.182V180H217.281V166.68H218.919V171.972ZM225.615 175.032C225.615 174.288 225.465 173.64 225.165 173.088C224.865 172.536 224.457 172.116 223.941 171.828C223.437 171.54 222.879 171.396 222.267 171.396C221.667 171.396 221.109 171.546 220.593 171.846C220.089 172.134 219.681 172.56 219.369 173.124C219.069 173.676 218.919 174.318 218.919 175.05C218.919 175.794 219.069 176.448 219.369 177.012C219.681 177.564 220.089 177.99 220.593 178.29C221.109 178.578 221.667 178.722 222.267 178.722C222.879 178.722 223.437 178.578 223.941 178.29C224.457 177.99 224.865 177.564 225.165 177.012C225.465 176.448 225.615 175.788 225.615 175.032ZM231.083 166.68V180H229.445V166.68H231.083ZM242.874 174.69C242.874 175.002 242.856 175.332 242.82 175.68H234.936C234.996 176.652 235.326 177.414 235.926 177.966C236.538 178.506 237.276 178.776 238.14 178.776C238.848 178.776 239.436 178.614 239.904 178.29C240.384 177.954 240.72 177.51 240.912 176.958H242.676C242.412 177.906 241.884 178.68 241.092 179.28C240.3 179.868 239.316 180.162 238.14 180.162C237.204 180.162 236.364 179.952 235.62 179.532C234.888 179.112 234.312 178.518 233.892 177.75C233.472 176.97 233.262 176.07 233.262 175.05C233.262 174.03 233.466 173.136 233.874 172.368C234.282 171.6 234.852 171.012 235.584 170.604C236.328 170.184 237.18 169.974 238.14 169.974C239.076 169.974 239.904 170.178 240.624 170.586C241.344 170.994 241.896 171.558 242.28 172.278C242.676 172.986 242.874 173.79 242.874 174.69ZM241.182 174.348C241.182 173.724 241.044 173.19 240.768 172.746C240.492 172.29 240.114 171.948 239.634 171.72C239.166 171.48 238.644 171.36 238.068 171.36C237.24 171.36 236.532 171.624 235.944 172.152C235.368 172.68 235.038 173.412 234.954 174.348H241.182ZM244.424 175.032C244.424 174.024 244.628 173.142 245.036 172.386C245.444 171.618 246.002 171.024 246.71 170.604C247.43 170.184 248.234 169.974 249.122 169.974C249.89 169.974 250.604 170.154 251.264 170.514C251.924 170.862 252.428 171.324 252.776 171.9V166.68H254.432V180H252.776V178.146C252.452 178.734 251.972 179.22 251.336 179.604C250.7 179.976 249.956 180.162 249.104 180.162C248.228 180.162 247.43 179.946 246.71 179.514C246.002 179.082 245.444 178.476 245.036 177.696C244.628 176.916 244.424 176.028 244.424 175.032ZM252.776 175.05C252.776 174.306 252.626 173.658 252.326 173.106C252.026 172.554 251.618 172.134 251.102 171.846C250.598 171.546 250.04 171.396 249.428 171.396C248.816 171.396 248.258 171.54 247.754 171.828C247.25 172.116 246.848 172.536 246.548 173.088C246.248 173.64 246.098 174.288 246.098 175.032C246.098 175.788 246.248 176.448 246.548 177.012C246.848 177.564 247.25 177.99 247.754 178.29C248.258 178.578 248.816 178.722 249.428 178.722C250.04 178.722 250.598 178.578 251.102 178.29C251.618 177.99 252.026 177.564 252.326 177.012C252.626 176.448 252.776 175.794 252.776 175.05ZM273.861 169.956C274.629 169.956 275.313 170.118 275.913 170.442C276.513 170.754 276.987 171.228 277.335 171.864C277.683 172.5 277.857 173.274 277.857 174.186V180H276.237V174.42C276.237 173.436 275.991 172.686 275.499 172.17C275.019 171.642 274.365 171.378 273.537 171.378C272.685 171.378 272.007 171.654 271.503 172.206C270.999 172.746 270.747 173.532 270.747 174.564V180H269.127V174.42C269.127 173.436 268.881 172.686 268.389 172.17C267.909 171.642 267.255 171.378 266.427 171.378C265.575 171.378 264.897 171.654 264.393 172.206C263.889 172.746 263.637 173.532 263.637 174.564V180H261.999V170.136H263.637V171.558C263.961 171.042 264.393 170.646 264.933 170.37C265.485 170.094 266.091 169.956 266.751 169.956C267.579 169.956 268.311 170.142 268.947 170.514C269.583 170.886 270.057 171.432 270.369 172.152C270.645 171.456 271.101 170.916 271.737 170.532C272.373 170.148 273.081 169.956 273.861 169.956ZM279.932 175.032C279.932 174.024 280.136 173.142 280.544 172.386C280.952 171.618 281.51 171.024 282.218 170.604C282.938 170.184 283.736 169.974 284.612 169.974C285.476 169.974 286.226 170.16 286.862 170.532C287.498 170.904 287.972 171.372 288.284 171.936V170.136H289.94V180H288.284V178.164C287.96 178.74 287.474 179.22 286.826 179.604C286.19 179.976 285.446 180.162 284.594 180.162C283.718 180.162 282.926 179.946 282.218 179.514C281.51 179.082 280.952 178.476 280.544 177.696C280.136 176.916 279.932 176.028 279.932 175.032ZM288.284 175.05C288.284 174.306 288.134 173.658 287.834 173.106C287.534 172.554 287.126 172.134 286.61 171.846C286.106 171.546 285.548 171.396 284.936 171.396C284.324 171.396 283.766 171.54 283.262 171.828C282.758 172.116 282.356 172.536 282.056 173.088C281.756 173.64 281.606 174.288 281.606 175.032C281.606 175.788 281.756 176.448 282.056 177.012C282.356 177.564 282.758 177.99 283.262 178.29C283.766 178.578 284.324 178.722 284.936 178.722C285.548 178.722 286.106 178.578 286.61 178.29C287.126 177.99 287.534 177.564 287.834 177.012C288.134 176.448 288.284 175.794 288.284 175.05ZM297.514 169.956C298.714 169.956 299.686 170.322 300.43 171.054C301.174 171.774 301.546 172.818 301.546 174.186V180H299.926V174.42C299.926 173.436 299.68 172.686 299.188 172.17C298.696 171.642 298.024 171.378 297.172 171.378C296.308 171.378 295.618 171.648 295.102 172.188C294.598 172.728 294.346 173.514 294.346 174.546V180H292.708V170.136H294.346V171.54C294.67 171.036 295.108 170.646 295.66 170.37C296.224 170.094 296.842 169.956 297.514 169.956ZM312.718 170.136L306.778 184.644H305.086L307.03 179.892L303.052 170.136H304.87L307.966 178.128L311.026 170.136H312.718ZM320.801 171.738C321.089 171.174 321.497 170.736 322.025 170.424C322.565 170.112 323.219 169.956 323.987 169.956V171.648H323.555C321.719 171.648 320.801 172.644 320.801 174.636V180H319.163V170.136H320.801V171.738ZM334.878 174.69C334.878 175.002 334.86 175.332 334.824 175.68H326.94C327 176.652 327.33 177.414 327.93 177.966C328.542 178.506 329.28 178.776 330.144 178.776C330.852 178.776 331.44 178.614 331.908 178.29C332.388 177.954 332.724 177.51 332.916 176.958H334.68C334.416 177.906 333.888 178.68 333.096 179.28C332.304 179.868 331.32 180.162 330.144 180.162C329.208 180.162 328.368 179.952 327.624 179.532C326.892 179.112 326.316 178.518 325.896 177.75C325.476 176.97 325.266 176.07 325.266 175.05C325.266 174.03 325.47 173.136 325.878 172.368C326.286 171.6 326.856 171.012 327.588 170.604C328.332 170.184 329.184 169.974 330.144 169.974C331.08 169.974 331.908 170.178 332.628 170.586C333.348 170.994 333.9 171.558 334.284 172.278C334.68 172.986 334.878 173.79 334.878 174.69ZM333.186 174.348C333.186 173.724 333.048 173.19 332.772 172.746C332.496 172.29 332.118 171.948 331.638 171.72C331.17 171.48 330.648 171.36 330.072 171.36C329.244 171.36 328.536 171.624 327.948 172.152C327.372 172.68 327.042 173.412 326.958 174.348H333.186ZM340.532 180.162C339.776 180.162 339.098 180.036 338.498 179.784C337.898 179.52 337.424 179.16 337.076 178.704C336.728 178.236 336.536 177.702 336.5 177.102H338.192C338.24 177.594 338.468 177.996 338.876 178.308C339.296 178.62 339.842 178.776 340.514 178.776C341.138 178.776 341.63 178.638 341.99 178.362C342.35 178.086 342.53 177.738 342.53 177.318C342.53 176.886 342.338 176.568 341.954 176.364C341.57 176.148 340.976 175.938 340.172 175.734C339.44 175.542 338.84 175.35 338.372 175.158C337.916 174.954 337.52 174.66 337.184 174.276C336.86 173.88 336.698 173.364 336.698 172.728C336.698 172.224 336.848 171.762 337.148 171.342C337.448 170.922 337.874 170.592 338.426 170.352C338.978 170.1 339.608 169.974 340.316 169.974C341.408 169.974 342.29 170.25 342.962 170.802C343.634 171.354 343.994 172.11 344.042 173.07H342.404C342.368 172.554 342.158 172.14 341.774 171.828C341.402 171.516 340.898 171.36 340.262 171.36C339.674 171.36 339.206 171.486 338.858 171.738C338.51 171.99 338.336 172.32 338.336 172.728C338.336 173.052 338.438 173.322 338.642 173.538C338.858 173.742 339.122 173.91 339.434 174.042C339.758 174.162 340.202 174.3 340.766 174.456C341.474 174.648 342.05 174.84 342.494 175.032C342.938 175.212 343.316 175.488 343.628 175.86C343.952 176.232 344.12 176.718 344.132 177.318C344.132 177.858 343.982 178.344 343.682 178.776C343.382 179.208 342.956 179.55 342.404 179.802C341.864 180.042 341.24 180.162 340.532 180.162ZM348.443 171.486V177.3C348.443 177.78 348.545 178.122 348.749 178.326C348.953 178.518 349.307 178.614 349.811 178.614H351.017V180H349.541C348.629 180 347.945 179.79 347.489 179.37C347.033 178.95 346.805 178.26 346.805 177.3V171.486H345.527V170.136H346.805V167.652H348.443V170.136H351.017V171.486H348.443ZM352.389 175.032C352.389 174.024 352.593 173.142 353.001 172.386C353.409 171.618 353.967 171.024 354.675 170.604C355.395 170.184 356.193 169.974 357.069 169.974C357.933 169.974 358.683 170.16 359.319 170.532C359.955 170.904 360.429 171.372 360.741 171.936V170.136H362.397V180H360.741V178.164C360.417 178.74 359.931 179.22 359.283 179.604C358.647 179.976 357.903 180.162 357.051 180.162C356.175 180.162 355.383 179.946 354.675 179.514C353.967 179.082 353.409 178.476 353.001 177.696C352.593 176.916 352.389 176.028 352.389 175.032ZM360.741 175.05C360.741 174.306 360.591 173.658 360.291 173.106C359.991 172.554 359.583 172.134 359.067 171.846C358.563 171.546 358.005 171.396 357.393 171.396C356.781 171.396 356.223 171.54 355.719 171.828C355.215 172.116 354.813 172.536 354.513 173.088C354.213 173.64 354.063 174.288 354.063 175.032C354.063 175.788 354.213 176.448 354.513 177.012C354.813 177.564 355.215 177.99 355.719 178.29C356.223 178.578 356.781 178.722 357.393 178.722C358.005 178.722 358.563 178.578 359.067 178.29C359.583 177.99 359.991 177.564 360.291 177.012C360.591 176.448 360.741 175.794 360.741 175.05ZM373.913 170.136V180H372.275V178.542C371.963 179.046 371.525 179.442 370.961 179.73C370.409 180.006 369.797 180.144 369.125 180.144C368.357 180.144 367.667 179.988 367.055 179.676C366.443 179.352 365.957 178.872 365.597 178.236C365.249 177.6 365.075 176.826 365.075 175.914V170.136H366.695V175.698C366.695 176.67 366.941 177.42 367.433 177.948C367.925 178.464 368.597 178.722 369.449 178.722C370.325 178.722 371.015 178.452 371.519 177.912C372.023 177.372 372.275 176.586 372.275 175.554V170.136H373.913ZM378.317 171.738C378.605 171.174 379.013 170.736 379.541 170.424C380.081 170.112 380.735 169.956 381.503 169.956V171.648H381.071C379.235 171.648 378.317 172.644 378.317 174.636V180H376.679V170.136H378.317V171.738ZM382.782 175.032C382.782 174.024 382.986 173.142 383.394 172.386C383.802 171.618 384.36 171.024 385.068 170.604C385.788 170.184 386.586 169.974 387.462 169.974C388.326 169.974 389.076 170.16 389.712 170.532C390.348 170.904 390.822 171.372 391.134 171.936V170.136H392.79V180H391.134V178.164C390.81 178.74 390.324 179.22 389.676 179.604C389.04 179.976 388.296 180.162 387.444 180.162C386.568 180.162 385.776 179.946 385.068 179.514C384.36 179.082 383.802 178.476 383.394 177.696C382.986 176.916 382.782 176.028 382.782 175.032ZM391.134 175.05C391.134 174.306 390.984 173.658 390.684 173.106C390.384 172.554 389.976 172.134 389.46 171.846C388.956 171.546 388.398 171.396 387.786 171.396C387.174 171.396 386.616 171.54 386.112 171.828C385.608 172.116 385.206 172.536 384.906 173.088C384.606 173.64 384.456 174.288 384.456 175.032C384.456 175.788 384.606 176.448 384.906 177.012C385.206 177.564 385.608 177.99 386.112 178.29C386.616 178.578 387.174 178.722 387.786 178.722C388.398 178.722 388.956 178.578 389.46 178.29C389.976 177.99 390.384 177.564 390.684 177.012C390.984 176.448 391.134 175.794 391.134 175.05ZM400.364 169.956C401.564 169.956 402.536 170.322 403.28 171.054C404.024 171.774 404.396 172.818 404.396 174.186V180H402.776V174.42C402.776 173.436 402.53 172.686 402.038 172.17C401.546 171.642 400.874 171.378 400.022 171.378C399.158 171.378 398.468 171.648 397.952 172.188C397.448 172.728 397.196 173.514 397.196 174.546V180H395.558V170.136H397.196V171.54C397.52 171.036 397.958 170.646 398.51 170.37C399.074 170.094 399.692 169.956 400.364 169.956ZM409.07 171.486V177.3C409.07 177.78 409.172 178.122 409.376 178.326C409.58 178.518 409.934 178.614 410.438 178.614H411.644V180H410.168C409.256 180 408.572 179.79 408.116 179.37C407.66 178.95 407.432 178.26 407.432 177.3V171.486H406.154V170.136H407.432V167.652H409.07V170.136H411.644V171.486H409.07ZM417.12 180.162C416.364 180.162 415.686 180.036 415.086 179.784C414.486 179.52 414.012 179.16 413.664 178.704C413.316 178.236 413.124 177.702 413.088 177.102H414.78C414.828 177.594 415.056 177.996 415.464 178.308C415.884 178.62 416.43 178.776 417.102 178.776C417.726 178.776 418.218 178.638 418.578 178.362C418.938 178.086 419.118 177.738 419.118 177.318C419.118 176.886 418.926 176.568 418.542 176.364C418.158 176.148 417.564 175.938 416.76 175.734C416.028 175.542 415.428 175.35 414.96 175.158C414.504 174.954 414.108 174.66 413.772 174.276C413.448 173.88 413.286 173.364 413.286 172.728C413.286 172.224 413.436 171.762 413.736 171.342C414.036 170.922 414.462 170.592 415.014 170.352C415.566 170.1 416.196 169.974 416.904 169.974C417.996 169.974 418.878 170.25 419.55 170.802C420.222 171.354 420.582 172.11 420.63 173.07H418.992C418.956 172.554 418.746 172.14 418.362 171.828C417.99 171.516 417.486 171.36 416.85 171.36C416.262 171.36 415.794 171.486 415.446 171.738C415.098 171.99 414.924 172.32 414.924 172.728C414.924 173.052 415.026 173.322 415.23 173.538C415.446 173.742 415.71 173.91 416.022 174.042C416.346 174.162 416.79 174.3 417.354 174.456C418.062 174.648 418.638 174.84 419.082 175.032C419.526 175.212 419.904 175.488 420.216 175.86C420.54 176.232 420.708 176.718 420.72 177.318C420.72 177.858 420.57 178.344 420.27 178.776C419.97 179.208 419.544 179.55 418.992 179.802C418.452 180.042 417.828 180.162 417.12 180.162ZM429.829 171.486V177.3C429.829 177.78 429.931 178.122 430.135 178.326C430.339 178.518 430.693 178.614 431.197 178.614H432.403V180H430.927C430.015 180 429.331 179.79 428.875 179.37C428.419 178.95 428.191 178.26 428.191 177.3V171.486H426.913V170.136H428.191V167.652H429.829V170.136H432.403V171.486H429.829ZM438.69 180.162C437.766 180.162 436.926 179.952 436.17 179.532C435.426 179.112 434.838 178.518 434.406 177.75C433.986 176.97 433.776 176.07 433.776 175.05C433.776 174.042 433.992 173.154 434.424 172.386C434.868 171.606 435.468 171.012 436.224 170.604C436.98 170.184 437.826 169.974 438.762 169.974C439.698 169.974 440.544 170.184 441.3 170.604C442.056 171.012 442.65 171.6 443.082 172.368C443.526 173.136 443.748 174.03 443.748 175.05C443.748 176.07 443.52 176.97 443.064 177.75C442.62 178.518 442.014 179.112 441.246 179.532C440.478 179.952 439.626 180.162 438.69 180.162ZM438.69 178.722C439.278 178.722 439.83 178.584 440.346 178.308C440.862 178.032 441.276 177.618 441.588 177.066C441.912 176.514 442.074 175.842 442.074 175.05C442.074 174.258 441.918 173.586 441.606 173.034C441.294 172.482 440.886 172.074 440.382 171.81C439.878 171.534 439.332 171.396 438.744 171.396C438.144 171.396 437.592 171.534 437.088 171.81C436.596 172.074 436.2 172.482 435.9 173.034C435.6 173.586 435.45 174.258 435.45 175.05C435.45 175.854 435.594 176.532 435.882 177.084C436.182 177.636 436.578 178.05 437.07 178.326C437.562 178.59 438.102 178.722 438.69 178.722ZM13.248 201.956C14.016 201.956 14.7 202.118 15.3 202.442C15.9 202.754 16.374 203.228 16.722 203.864C17.07 204.5 17.244 205.274 17.244 206.186V212H15.624V206.42C15.624 205.436 15.378 204.686 14.886 204.17C14.406 203.642 13.752 203.378 12.924 203.378C12.072 203.378 11.394 203.654 10.89 204.206C10.386 204.746 10.134 205.532 10.134 206.564V212H8.514V206.42C8.514 205.436 8.268 204.686 7.776 204.17C7.296 203.642 6.642 203.378 5.814 203.378C4.962 203.378 4.284 203.654 3.78 204.206C3.276 204.746 3.024 205.532 3.024 206.564V212H1.386V202.136H3.024V203.558C3.348 203.042 3.78 202.646 4.32 202.37C4.872 202.094 5.478 201.956 6.138 201.956C6.966 201.956 7.698 202.142 8.334 202.514C8.97 202.886 9.444 203.432 9.756 204.152C10.032 203.456 10.488 202.916 11.124 202.532C11.76 202.148 12.468 201.956 13.248 201.956ZM19.3189 207.032C19.3189 206.024 19.5229 205.142 19.9309 204.386C20.3389 203.618 20.8969 203.024 21.6049 202.604C22.3249 202.184 23.1229 201.974 23.9989 201.974C24.8629 201.974 25.6129 202.16 26.2489 202.532C26.8849 202.904 27.3589 203.372 27.6709 203.936V202.136H29.3269V212H27.6709V210.164C27.3469 210.74 26.8609 211.22 26.2129 211.604C25.5769 211.976 24.8329 212.162 23.9809 212.162C23.1049 212.162 22.3129 211.946 21.6049 211.514C20.8969 211.082 20.3389 210.476 19.9309 209.696C19.5229 208.916 19.3189 208.028 19.3189 207.032ZM27.6709 207.05C27.6709 206.306 27.5209 205.658 27.2209 205.106C26.9209 204.554 26.5129 204.134 25.9969 203.846C25.4929 203.546 24.9349 203.396 24.3229 203.396C23.7109 203.396 23.1529 203.54 22.6489 203.828C22.1449 204.116 21.7429 204.536 21.4429 205.088C21.1429 205.64 20.9929 206.288 20.9929 207.032C20.9929 207.788 21.1429 208.448 21.4429 209.012C21.7429 209.564 22.1449 209.99 22.6489 210.29C23.1529 210.578 23.7109 210.722 24.3229 210.722C24.9349 210.722 25.4929 210.578 25.9969 210.29C26.5129 209.99 26.9209 209.564 27.2209 209.012C27.5209 208.448 27.6709 207.794 27.6709 207.05ZM36.901 201.956C38.101 201.956 39.073 202.322 39.817 203.054C40.561 203.774 40.933 204.818 40.933 206.186V212H39.313V206.42C39.313 205.436 39.067 204.686 38.575 204.17C38.083 203.642 37.411 203.378 36.559 203.378C35.695 203.378 35.005 203.648 34.489 204.188C33.985 204.728 33.733 205.514 33.733 206.546V212H32.095V202.136H33.733V203.54C34.057 203.036 34.495 202.646 35.047 202.37C35.611 202.094 36.229 201.956 36.901 201.956ZM42.9967 207.032C42.9967 206.024 43.2007 205.142 43.6087 204.386C44.0167 203.618 44.5747 203.024 45.2827 202.604C46.0027 202.184 46.8007 201.974 47.6767 201.974C48.5407 201.974 49.2907 202.16 49.9267 202.532C50.5627 202.904 51.0367 203.372 51.3487 203.936V202.136H53.0047V212H51.3487V210.164C51.0247 210.74 50.5387 211.22 49.8907 211.604C49.2547 211.976 48.5107 212.162 47.6587 212.162C46.7827 212.162 45.9907 211.946 45.2827 211.514C44.5747 211.082 44.0167 210.476 43.6087 209.696C43.2007 208.916 42.9967 208.028 42.9967 207.032ZM51.3487 207.05C51.3487 206.306 51.1987 205.658 50.8987 205.106C50.5987 204.554 50.1907 204.134 49.6747 203.846C49.1707 203.546 48.6127 203.396 48.0007 203.396C47.3887 203.396 46.8307 203.54 46.3267 203.828C45.8227 204.116 45.4207 204.536 45.1207 205.088C44.8207 205.64 44.6707 206.288 44.6707 207.032C44.6707 207.788 44.8207 208.448 45.1207 209.012C45.4207 209.564 45.8227 209.99 46.3267 210.29C46.8307 210.578 47.3887 210.722 48.0007 210.722C48.6127 210.722 49.1707 210.578 49.6747 210.29C50.1907 209.99 50.5987 209.564 50.8987 209.012C51.1987 208.448 51.3487 207.794 51.3487 207.05ZM59.8407 201.974C60.6927 201.974 61.4367 202.16 62.0727 202.532C62.7207 202.904 63.2007 203.372 63.5127 203.936V202.136H65.1687V212.216C65.1687 213.116 64.9767 213.914 64.5927 214.61C64.2087 215.318 63.6567 215.87 62.9367 216.266C62.2287 216.662 61.4007 216.86 60.4527 216.86C59.1567 216.86 58.0767 216.554 57.2127 215.942C56.3487 215.33 55.8387 214.496 55.6827 213.44H57.3027C57.4827 214.04 57.8547 214.52 58.4187 214.88C58.9827 215.252 59.6607 215.438 60.4527 215.438C61.3527 215.438 62.0847 215.156 62.6487 214.592C63.2247 214.028 63.5127 213.236 63.5127 212.216V210.146C63.1887 210.722 62.7087 211.202 62.0727 211.586C61.4367 211.97 60.6927 212.162 59.8407 212.162C58.9647 212.162 58.1667 211.946 57.4467 211.514C56.7387 211.082 56.1807 210.476 55.7727 209.696C55.3647 208.916 55.1607 208.028 55.1607 207.032C55.1607 206.024 55.3647 205.142 55.7727 204.386C56.1807 203.618 56.7387 203.024 57.4467 202.604C58.1667 202.184 58.9647 201.974 59.8407 201.974ZM63.5127 207.05C63.5127 206.306 63.3627 205.658 63.0627 205.106C62.7627 204.554 62.3547 204.134 61.8387 203.846C61.3347 203.546 60.7767 203.396 60.1647 203.396C59.5527 203.396 58.9947 203.54 58.4907 203.828C57.9867 204.116 57.5847 204.536 57.2847 205.088C56.9847 205.64 56.8347 206.288 56.8347 207.032C56.8347 207.788 56.9847 208.448 57.2847 209.012C57.5847 209.564 57.9867 209.99 58.4907 210.29C58.9947 210.578 59.5527 210.722 60.1647 210.722C60.7767 210.722 61.3347 210.578 61.8387 210.29C62.3547 209.99 62.7627 209.564 63.0627 209.012C63.3627 208.448 63.5127 207.794 63.5127 207.05ZM76.9368 206.69C76.9368 207.002 76.9188 207.332 76.8828 207.68H68.9988C69.0588 208.652 69.3888 209.414 69.9888 209.966C70.6008 210.506 71.3388 210.776 72.2028 210.776C72.9108 210.776 73.4988 210.614 73.9668 210.29C74.4468 209.954 74.7828 209.51 74.9748 208.958H76.7388C76.4748 209.906 75.9468 210.68 75.1548 211.28C74.3628 211.868 73.3788 212.162 72.2028 212.162C71.2668 212.162 70.4268 211.952 69.6828 211.532C68.9508 211.112 68.3748 210.518 67.9548 209.75C67.5348 208.97 67.3248 208.07 67.3248 207.05C67.3248 206.03 67.5288 205.136 67.9368 204.368C68.3448 203.6 68.9148 203.012 69.6468 202.604C70.3908 202.184 71.2428 201.974 72.2028 201.974C73.1388 201.974 73.9668 202.178 74.6868 202.586C75.4068 202.994 75.9588 203.558 76.3428 204.278C76.7388 204.986 76.9368 205.79 76.9368 206.69ZM75.2448 206.348C75.2448 205.724 75.1068 205.19 74.8308 204.746C74.5548 204.29 74.1768 203.948 73.6968 203.72C73.2288 203.48 72.7068 203.36 72.1308 203.36C71.3028 203.36 70.5948 203.624 70.0068 204.152C69.4308 204.68 69.1008 205.412 69.0168 206.348H75.2448ZM85.8957 203.486V209.3C85.8957 209.78 85.9977 210.122 86.2017 210.326C86.4057 210.518 86.7597 210.614 87.2637 210.614H88.4697V212H86.9937C86.0817 212 85.3977 211.79 84.9417 211.37C84.4857 210.95 84.2577 210.26 84.2577 209.3V203.486H82.9797V202.136H84.2577V199.652H85.8957V202.136H88.4697V203.486H85.8957ZM95.3504 201.956C96.0944 201.956 96.7664 202.118 97.3664 202.442C97.9664 202.754 98.4344 203.228 98.7704 203.864C99.1184 204.5 99.2924 205.274 99.2924 206.186V212H97.6724V206.42C97.6724 205.436 97.4264 204.686 96.9344 204.17C96.4424 203.642 95.7704 203.378 94.9184 203.378C94.0544 203.378 93.3644 203.648 92.8484 204.188C92.3444 204.728 92.0924 205.514 92.0924 206.546V212H90.4544V198.68H92.0924V203.54C92.4164 203.036 92.8604 202.646 93.4244 202.37C94.0004 202.094 94.6424 201.956 95.3504 201.956ZM110.968 206.69C110.968 207.002 110.95 207.332 110.914 207.68H103.03C103.09 208.652 103.42 209.414 104.02 209.966C104.632 210.506 105.37 210.776 106.234 210.776C106.942 210.776 107.53 210.614 107.998 210.29C108.478 209.954 108.814 209.51 109.006 208.958H110.77C110.506 209.906 109.978 210.68 109.186 211.28C108.394 211.868 107.41 212.162 106.234 212.162C105.298 212.162 104.458 211.952 103.714 211.532C102.982 211.112 102.406 210.518 101.986 209.75C101.566 208.97 101.356 208.07 101.356 207.05C101.356 206.03 101.56 205.136 101.968 204.368C102.376 203.6 102.946 203.012 103.678 202.604C104.422 202.184 105.274 201.974 106.234 201.974C107.17 201.974 107.998 202.178 108.718 202.586C109.438 202.994 109.99 203.558 110.374 204.278C110.77 204.986 110.968 205.79 110.968 206.69ZM109.276 206.348C109.276 205.724 109.138 205.19 108.862 204.746C108.586 204.29 108.208 203.948 107.728 203.72C107.26 203.48 106.738 203.36 106.162 203.36C105.334 203.36 104.626 203.624 104.038 204.152C103.462 204.68 103.132 205.412 103.048 206.348H109.276ZM113.976 200.534C113.664 200.534 113.4 200.426 113.184 200.21C112.968 199.994 112.86 199.73 112.86 199.418C112.86 199.106 112.968 198.842 113.184 198.626C113.4 198.41 113.664 198.302 113.976 198.302C114.276 198.302 114.528 198.41 114.732 198.626C114.948 198.842 115.056 199.106 115.056 199.418C115.056 199.73 114.948 199.994 114.732 200.21C114.528 200.426 114.276 200.534 113.976 200.534ZM114.768 202.136V212H113.13V202.136H114.768ZM119.198 203.738C119.486 203.174 119.894 202.736 120.422 202.424C120.962 202.112 121.616 201.956 122.384 201.956V203.648H121.952C120.116 203.648 119.198 204.644 119.198 206.636V212H117.56V202.136H119.198V203.738ZM130.712 203.954C131.036 203.39 131.516 202.922 132.152 202.55C132.8 202.166 133.55 201.974 134.402 201.974C135.278 201.974 136.07 202.184 136.777 202.604C137.497 203.024 138.062 203.618 138.47 204.386C138.878 205.142 139.082 206.024 139.082 207.032C139.082 208.028 138.878 208.916 138.47 209.696C138.062 210.476 137.497 211.082 136.777 211.514C136.07 211.946 135.278 212.162 134.402 212.162C133.562 212.162 132.818 211.976 132.17 211.604C131.534 211.22 131.048 210.746 130.712 210.182V216.68H129.074V202.136H130.712V203.954ZM137.408 207.032C137.408 206.288 137.258 205.64 136.958 205.088C136.658 204.536 136.25 204.116 135.734 203.828C135.23 203.54 134.672 203.396 134.06 203.396C133.46 203.396 132.902 203.546 132.386 203.846C131.882 204.134 131.474 204.56 131.162 205.124C130.862 205.676 130.712 206.318 130.712 207.05C130.712 207.794 130.862 208.448 131.162 209.012C131.474 209.564 131.882 209.99 132.386 210.29C132.902 210.578 133.46 210.722 134.06 210.722C134.672 210.722 135.23 210.578 135.734 210.29C136.25 209.99 136.658 209.564 136.958 209.012C137.258 208.448 137.408 207.788 137.408 207.032ZM150.238 206.69C150.238 207.002 150.22 207.332 150.184 207.68H142.3C142.36 208.652 142.69 209.414 143.29 209.966C143.902 210.506 144.64 210.776 145.504 210.776C146.212 210.776 146.8 210.614 147.268 210.29C147.748 209.954 148.084 209.51 148.276 208.958H150.04C149.776 209.906 149.248 210.68 148.456 211.28C147.664 211.868 146.68 212.162 145.504 212.162C144.568 212.162 143.728 211.952 142.984 211.532C142.252 211.112 141.676 210.518 141.256 209.75C140.836 208.97 140.626 208.07 140.626 207.05C140.626 206.03 140.83 205.136 141.238 204.368C141.646 203.6 142.216 203.012 142.948 202.604C143.692 202.184 144.544 201.974 145.504 201.974C146.44 201.974 147.268 202.178 147.988 202.586C148.708 202.994 149.26 203.558 149.644 204.278C150.04 204.986 150.238 205.79 150.238 206.69ZM148.546 206.348C148.546 205.724 148.408 205.19 148.132 204.746C147.856 204.29 147.478 203.948 146.998 203.72C146.53 203.48 146.008 203.36 145.432 203.36C144.604 203.36 143.896 203.624 143.308 204.152C142.732 204.68 142.402 205.412 142.318 206.348H148.546ZM151.788 207.032C151.788 206.024 151.992 205.142 152.4 204.386C152.808 203.618 153.366 203.024 154.074 202.604C154.794 202.184 155.592 201.974 156.468 201.974C157.332 201.974 158.082 202.16 158.718 202.532C159.354 202.904 159.828 203.372 160.14 203.936V202.136H161.796V212H160.14V210.164C159.816 210.74 159.33 211.22 158.682 211.604C158.046 211.976 157.302 212.162 156.45 212.162C155.574 212.162 154.782 211.946 154.074 211.514C153.366 211.082 152.808 210.476 152.4 209.696C151.992 208.916 151.788 208.028 151.788 207.032ZM160.14 207.05C160.14 206.306 159.99 205.658 159.69 205.106C159.39 204.554 158.982 204.134 158.466 203.846C157.962 203.546 157.404 203.396 156.792 203.396C156.18 203.396 155.622 203.54 155.118 203.828C154.614 204.116 154.212 204.536 153.912 205.088C153.612 205.64 153.462 206.288 153.462 207.032C153.462 207.788 153.612 208.448 153.912 209.012C154.212 209.564 154.614 209.99 155.118 210.29C155.622 210.578 156.18 210.722 156.792 210.722C157.404 210.722 157.962 210.578 158.466 210.29C158.982 209.99 159.39 209.564 159.69 209.012C159.99 208.448 160.14 207.794 160.14 207.05ZM170.072 212L166.202 207.644V212H164.564V198.68H166.202V206.51L170 202.136H172.286L167.642 207.05L172.304 212H170.072ZM180.264 203.972C180.6 203.384 181.092 202.904 181.74 202.532C182.388 202.16 183.126 201.974 183.954 201.974C184.842 201.974 185.64 202.184 186.348 202.604C187.056 203.024 187.614 203.618 188.022 204.386C188.43 205.142 188.634 206.024 188.634 207.032C188.634 208.028 188.43 208.916 188.022 209.696C187.614 210.476 187.05 211.082 186.33 211.514C185.622 211.946 184.83 212.162 183.954 212.162C183.102 212.162 182.352 211.976 181.704 211.604C181.068 211.232 180.588 210.758 180.264 210.182V212H178.626V198.68H180.264V203.972ZM186.96 207.032C186.96 206.288 186.81 205.64 186.51 205.088C186.21 204.536 185.802 204.116 185.286 203.828C184.782 203.54 184.224 203.396 183.612 203.396C183.012 203.396 182.454 203.546 181.938 203.846C181.434 204.134 181.026 204.56 180.714 205.124C180.414 205.676 180.264 206.318 180.264 207.05C180.264 207.794 180.414 208.448 180.714 209.012C181.026 209.564 181.434 209.99 181.938 210.29C182.454 210.578 183.012 210.722 183.612 210.722C184.224 210.722 184.782 210.578 185.286 210.29C185.802 209.99 186.21 209.564 186.51 209.012C186.81 208.448 186.96 207.788 186.96 207.032ZM199.538 202.136V212H197.9V210.542C197.588 211.046 197.15 211.442 196.586 211.73C196.034 212.006 195.422 212.144 194.75 212.144C193.982 212.144 193.292 211.988 192.68 211.676C192.068 211.352 191.582 210.872 191.222 210.236C190.874 209.6 190.7 208.826 190.7 207.914V202.136H192.32V207.698C192.32 208.67 192.566 209.42 193.058 209.948C193.55 210.464 194.222 210.722 195.074 210.722C195.95 210.722 196.64 210.452 197.144 209.912C197.648 209.372 197.9 208.586 197.9 207.554V202.136H199.538ZM205.796 212.162C205.04 212.162 204.362 212.036 203.762 211.784C203.162 211.52 202.688 211.16 202.34 210.704C201.992 210.236 201.8 209.702 201.764 209.102H203.456C203.504 209.594 203.732 209.996 204.14 210.308C204.56 210.62 205.106 210.776 205.778 210.776C206.402 210.776 206.894 210.638 207.254 210.362C207.614 210.086 207.794 209.738 207.794 209.318C207.794 208.886 207.602 208.568 207.218 208.364C206.834 208.148 206.24 207.938 205.436 207.734C204.704 207.542 204.104 207.35 203.636 207.158C203.18 206.954 202.784 206.66 202.448 206.276C202.124 205.88 201.962 205.364 201.962 204.728C201.962 204.224 202.112 203.762 202.412 203.342C202.712 202.922 203.138 202.592 203.69 202.352C204.242 202.1 204.872 201.974 205.58 201.974C206.672 201.974 207.554 202.25 208.226 202.802C208.898 203.354 209.258 204.11 209.306 205.07H207.668C207.632 204.554 207.422 204.14 207.038 203.828C206.666 203.516 206.162 203.36 205.526 203.36C204.938 203.36 204.47 203.486 204.122 203.738C203.774 203.99 203.6 204.32 203.6 204.728C203.6 205.052 203.702 205.322 203.906 205.538C204.122 205.742 204.386 205.91 204.698 206.042C205.022 206.162 205.466 206.3 206.03 206.456C206.738 206.648 207.314 206.84 207.758 207.032C208.202 207.212 208.58 207.488 208.892 207.86C209.216 208.232 209.384 208.718 209.396 209.318C209.396 209.858 209.246 210.344 208.946 210.776C208.646 211.208 208.22 211.55 207.668 211.802C207.128 212.042 206.504 212.162 205.796 212.162ZM212.554 200.534C212.242 200.534 211.978 200.426 211.762 200.21C211.546 199.994 211.438 199.73 211.438 199.418C211.438 199.106 211.546 198.842 211.762 198.626C211.978 198.41 212.242 198.302 212.554 198.302C212.854 198.302 213.106 198.41 213.31 198.626C213.526 198.842 213.634 199.106 213.634 199.418C213.634 199.73 213.526 199.994 213.31 200.21C213.106 200.426 212.854 200.534 212.554 200.534ZM213.346 202.136V212H211.708V202.136H213.346ZM220.944 201.956C222.144 201.956 223.116 202.322 223.86 203.054C224.604 203.774 224.976 204.818 224.976 206.186V212H223.356V206.42C223.356 205.436 223.11 204.686 222.618 204.17C222.126 203.642 221.454 203.378 220.602 203.378C219.738 203.378 219.048 203.648 218.532 204.188C218.028 204.728 217.776 205.514 217.776 206.546V212H216.138V202.136H217.776V203.54C218.1 203.036 218.538 202.646 219.09 202.37C219.654 202.094 220.272 201.956 220.944 201.956ZM236.652 206.69C236.652 207.002 236.634 207.332 236.598 207.68H228.714C228.774 208.652 229.104 209.414 229.704 209.966C230.316 210.506 231.054 210.776 231.918 210.776C232.626 210.776 233.214 210.614 233.682 210.29C234.162 209.954 234.498 209.51 234.69 208.958H236.454C236.19 209.906 235.662 210.68 234.87 211.28C234.078 211.868 233.094 212.162 231.918 212.162C230.982 212.162 230.142 211.952 229.398 211.532C228.666 211.112 228.09 210.518 227.67 209.75C227.25 208.97 227.04 208.07 227.04 207.05C227.04 206.03 227.244 205.136 227.652 204.368C228.06 203.6 228.63 203.012 229.362 202.604C230.106 202.184 230.958 201.974 231.918 201.974C232.854 201.974 233.682 202.178 234.402 202.586C235.122 202.994 235.674 203.558 236.058 204.278C236.454 204.986 236.652 205.79 236.652 206.69ZM234.96 206.348C234.96 205.724 234.822 205.19 234.546 204.746C234.27 204.29 233.892 203.948 233.412 203.72C232.944 203.48 232.422 203.36 231.846 203.36C231.018 203.36 230.31 203.624 229.722 204.152C229.146 204.68 228.816 205.412 228.732 206.348H234.96ZM242.306 212.162C241.55 212.162 240.872 212.036 240.272 211.784C239.672 211.52 239.198 211.16 238.85 210.704C238.502 210.236 238.31 209.702 238.274 209.102H239.966C240.014 209.594 240.242 209.996 240.65 210.308C241.07 210.62 241.616 210.776 242.288 210.776C242.912 210.776 243.404 210.638 243.764 210.362C244.124 210.086 244.304 209.738 244.304 209.318C244.304 208.886 244.112 208.568 243.728 208.364C243.344 208.148 242.75 207.938 241.946 207.734C241.214 207.542 240.614 207.35 240.146 207.158C239.69 206.954 239.294 206.66 238.958 206.276C238.634 205.88 238.472 205.364 238.472 204.728C238.472 204.224 238.622 203.762 238.922 203.342C239.222 202.922 239.648 202.592 240.2 202.352C240.752 202.1 241.382 201.974 242.09 201.974C243.182 201.974 244.064 202.25 244.736 202.802C245.408 203.354 245.768 204.11 245.816 205.07H244.178C244.142 204.554 243.932 204.14 243.548 203.828C243.176 203.516 242.672 203.36 242.036 203.36C241.448 203.36 240.98 203.486 240.632 203.738C240.284 203.99 240.11 204.32 240.11 204.728C240.11 205.052 240.212 205.322 240.416 205.538C240.632 205.742 240.896 205.91 241.208 206.042C241.532 206.162 241.976 206.3 242.54 206.456C243.248 206.648 243.824 206.84 244.268 207.032C244.712 207.212 245.09 207.488 245.402 207.86C245.726 208.232 245.894 208.718 245.906 209.318C245.906 209.858 245.756 210.344 245.456 210.776C245.156 211.208 244.73 211.55 244.178 211.802C243.638 212.042 243.014 212.162 242.306 212.162ZM251.71 212.162C250.954 212.162 250.276 212.036 249.676 211.784C249.076 211.52 248.602 211.16 248.254 210.704C247.906 210.236 247.714 209.702 247.678 209.102H249.37C249.418 209.594 249.646 209.996 250.054 210.308C250.474 210.62 251.02 210.776 251.692 210.776C252.316 210.776 252.808 210.638 253.168 210.362C253.528 210.086 253.708 209.738 253.708 209.318C253.708 208.886 253.516 208.568 253.132 208.364C252.748 208.148 252.154 207.938 251.35 207.734C250.618 207.542 250.018 207.35 249.55 207.158C249.094 206.954 248.698 206.66 248.362 206.276C248.038 205.88 247.876 205.364 247.876 204.728C247.876 204.224 248.026 203.762 248.326 203.342C248.626 202.922 249.052 202.592 249.604 202.352C250.156 202.1 250.786 201.974 251.494 201.974C252.586 201.974 253.468 202.25 254.14 202.802C254.812 203.354 255.172 204.11 255.22 205.07H253.582C253.546 204.554 253.336 204.14 252.952 203.828C252.58 203.516 252.076 203.36 251.44 203.36C250.852 203.36 250.384 203.486 250.036 203.738C249.688 203.99 249.514 204.32 249.514 204.728C249.514 205.052 249.616 205.322 249.82 205.538C250.036 205.742 250.3 205.91 250.612 206.042C250.936 206.162 251.38 206.3 251.944 206.456C252.652 206.648 253.228 206.84 253.672 207.032C254.116 207.212 254.494 207.488 254.806 207.86C255.13 208.232 255.298 208.718 255.31 209.318C255.31 209.858 255.16 210.344 254.86 210.776C254.56 211.208 254.134 211.55 253.582 211.802C253.042 212.042 252.418 212.162 251.71 212.162ZM267.317 201.956C268.061 201.956 268.733 202.118 269.333 202.442C269.933 202.754 270.401 203.228 270.737 203.864C271.085 204.5 271.259 205.274 271.259 206.186V212H269.639V206.42C269.639 205.436 269.393 204.686 268.901 204.17C268.409 203.642 267.737 203.378 266.885 203.378C266.021 203.378 265.331 203.648 264.815 204.188C264.311 204.728 264.059 205.514 264.059 206.546V212H262.421V198.68H264.059V203.54C264.383 203.036 264.827 202.646 265.391 202.37C265.967 202.094 266.609 201.956 267.317 201.956ZM278.237 212.162C277.313 212.162 276.473 211.952 275.717 211.532C274.973 211.112 274.385 210.518 273.953 209.75C273.533 208.97 273.323 208.07 273.323 207.05C273.323 206.042 273.539 205.154 273.971 204.386C274.415 203.606 275.015 203.012 275.771 202.604C276.527 202.184 277.373 201.974 278.309 201.974C279.245 201.974 280.091 202.184 280.847 202.604C281.603 203.012 282.197 203.6 282.629 204.368C283.073 205.136 283.295 206.03 283.295 207.05C283.295 208.07 283.067 208.97 282.611 209.75C282.167 210.518 281.561 211.112 280.793 211.532C280.025 211.952 279.173 212.162 278.237 212.162ZM278.237 210.722C278.825 210.722 279.377 210.584 279.893 210.308C280.409 210.032 280.823 209.618 281.135 209.066C281.459 208.514 281.621 207.842 281.621 207.05C281.621 206.258 281.465 205.586 281.153 205.034C280.841 204.482 280.433 204.074 279.929 203.81C279.425 203.534 278.879 203.396 278.291 203.396C277.691 203.396 277.139 203.534 276.635 203.81C276.143 204.074 275.747 204.482 275.447 205.034C275.147 205.586 274.997 206.258 274.997 207.05C274.997 207.854 275.141 208.532 275.429 209.084C275.729 209.636 276.125 210.05 276.617 210.326C277.109 210.59 277.649 210.722 278.237 210.722ZM294.197 202.136V212H292.559V210.542C292.247 211.046 291.809 211.442 291.245 211.73C290.693 212.006 290.081 212.144 289.409 212.144C288.641 212.144 287.951 211.988 287.339 211.676C286.727 211.352 286.241 210.872 285.881 210.236C285.533 209.6 285.359 208.826 285.359 207.914V202.136H286.979V207.698C286.979 208.67 287.225 209.42 287.717 209.948C288.209 210.464 288.881 210.722 289.733 210.722C290.609 210.722 291.299 210.452 291.803 209.912C292.307 209.372 292.559 208.586 292.559 207.554V202.136H294.197ZM298.6 203.738C298.888 203.174 299.296 202.736 299.824 202.424C300.364 202.112 301.018 201.956 301.786 201.956V203.648H301.354C299.518 203.648 298.6 204.644 298.6 206.636V212H296.962V202.136H298.6V203.738ZM307.169 212.162C306.413 212.162 305.735 212.036 305.135 211.784C304.535 211.52 304.061 211.16 303.713 210.704C303.365 210.236 303.173 209.702 303.137 209.102H304.829C304.877 209.594 305.105 209.996 305.513 210.308C305.933 210.62 306.479 210.776 307.151 210.776C307.775 210.776 308.267 210.638 308.627 210.362C308.987 210.086 309.167 209.738 309.167 209.318C309.167 208.886 308.975 208.568 308.591 208.364C308.207 208.148 307.613 207.938 306.809 207.734C306.077 207.542 305.477 207.35 305.009 207.158C304.553 206.954 304.157 206.66 303.821 206.276C303.497 205.88 303.335 205.364 303.335 204.728C303.335 204.224 303.485 203.762 303.785 203.342C304.085 202.922 304.511 202.592 305.063 202.352C305.615 202.1 306.245 201.974 306.953 201.974C308.045 201.974 308.927 202.25 309.599 202.802C310.271 203.354 310.631 204.11 310.679 205.07H309.041C309.005 204.554 308.795 204.14 308.411 203.828C308.039 203.516 307.535 203.36 306.899 203.36C306.311 203.36 305.843 203.486 305.495 203.738C305.147 203.99 304.973 204.32 304.973 204.728C304.973 205.052 305.075 205.322 305.279 205.538C305.495 205.742 305.759 205.91 306.071 206.042C306.395 206.162 306.839 206.3 307.403 206.456C308.111 206.648 308.687 206.84 309.131 207.032C309.575 207.212 309.953 207.488 310.265 207.86C310.589 208.232 310.757 208.718 310.769 209.318C310.769 209.858 310.619 210.344 310.319 210.776C310.019 211.208 309.593 211.55 309.041 211.802C308.501 212.042 307.877 212.162 307.169 212.162ZM321.552 210.488L324.612 202.136H326.358L322.488 212H320.58L316.71 202.136H318.474L321.552 210.488ZM336.97 206.69C336.97 207.002 336.952 207.332 336.916 207.68H329.032C329.092 208.652 329.422 209.414 330.022 209.966C330.634 210.506 331.372 210.776 332.236 210.776C332.944 210.776 333.532 210.614 334 210.29C334.48 209.954 334.816 209.51 335.008 208.958H336.772C336.508 209.906 335.98 210.68 335.188 211.28C334.396 211.868 333.412 212.162 332.236 212.162C331.3 212.162 330.46 211.952 329.716 211.532C328.984 211.112 328.408 210.518 327.988 209.75C327.568 208.97 327.358 208.07 327.358 207.05C327.358 206.03 327.562 205.136 327.97 204.368C328.378 203.6 328.948 203.012 329.68 202.604C330.424 202.184 331.276 201.974 332.236 201.974C333.172 201.974 334 202.178 334.72 202.586C335.44 202.994 335.992 203.558 336.376 204.278C336.772 204.986 336.97 205.79 336.97 206.69ZM335.278 206.348C335.278 205.724 335.14 205.19 334.864 204.746C334.588 204.29 334.21 203.948 333.73 203.72C333.262 203.48 332.74 203.36 332.164 203.36C331.336 203.36 330.628 203.624 330.04 204.152C329.464 204.68 329.134 205.412 329.05 206.348H335.278ZM340.77 203.738C341.058 203.174 341.466 202.736 341.994 202.424C342.534 202.112 343.188 201.956 343.956 201.956V203.648H343.524C341.688 203.648 340.77 204.644 340.77 206.636V212H339.132V202.136H340.77V203.738ZM354.343 202.136L348.403 216.644H346.711L348.655 211.892L344.677 202.136H346.495L349.591 210.128L352.651 202.136H354.343ZM369.788 206.69C369.788 207.002 369.77 207.332 369.734 207.68H361.85C361.91 208.652 362.24 209.414 362.84 209.966C363.452 210.506 364.19 210.776 365.054 210.776C365.762 210.776 366.35 210.614 366.818 210.29C367.298 209.954 367.634 209.51 367.826 208.958H369.59C369.326 209.906 368.798 210.68 368.006 211.28C367.214 211.868 366.23 212.162 365.054 212.162C364.118 212.162 363.278 211.952 362.534 211.532C361.802 211.112 361.226 210.518 360.806 209.75C360.386 208.97 360.176 208.07 360.176 207.05C360.176 206.03 360.38 205.136 360.788 204.368C361.196 203.6 361.766 203.012 362.498 202.604C363.242 202.184 364.094 201.974 365.054 201.974C365.99 201.974 366.818 202.178 367.538 202.586C368.258 202.994 368.81 203.558 369.194 204.278C369.59 204.986 369.788 205.79 369.788 206.69ZM368.096 206.348C368.096 205.724 367.958 205.19 367.682 204.746C367.406 204.29 367.028 203.948 366.548 203.72C366.08 203.48 365.558 203.36 364.982 203.36C364.154 203.36 363.446 203.624 362.858 204.152C362.282 204.68 361.952 205.412 361.868 206.348H368.096ZM375.964 203.486H373.894V212H372.256V203.486H370.978V202.136H372.256V201.434C372.256 200.33 372.538 199.526 373.102 199.022C373.678 198.506 374.596 198.248 375.856 198.248V199.616C375.136 199.616 374.626 199.76 374.326 200.048C374.038 200.324 373.894 200.786 373.894 201.434V202.136H375.964V203.486ZM381.888 203.486H379.818V212H378.18V203.486H376.902V202.136H378.18V201.434C378.18 200.33 378.462 199.526 379.026 199.022C379.602 198.506 380.52 198.248 381.78 198.248V199.616C381.06 199.616 380.55 199.76 380.25 200.048C379.962 200.324 379.818 200.786 379.818 201.434V202.136H381.888V203.486ZM392.798 206.69C392.798 207.002 392.78 207.332 392.744 207.68H384.86C384.92 208.652 385.25 209.414 385.85 209.966C386.462 210.506 387.2 210.776 388.064 210.776C388.772 210.776 389.36 210.614 389.828 210.29C390.308 209.954 390.644 209.51 390.836 208.958H392.6C392.336 209.906 391.808 210.68 391.016 211.28C390.224 211.868 389.24 212.162 388.064 212.162C387.128 212.162 386.288 211.952 385.544 211.532C384.812 211.112 384.236 210.518 383.816 209.75C383.396 208.97 383.186 208.07 383.186 207.05C383.186 206.03 383.39 205.136 383.798 204.368C384.206 203.6 384.776 203.012 385.508 202.604C386.252 202.184 387.104 201.974 388.064 201.974C389 201.974 389.828 202.178 390.548 202.586C391.268 202.994 391.82 203.558 392.204 204.278C392.6 204.986 392.798 205.79 392.798 206.69ZM391.106 206.348C391.106 205.724 390.968 205.19 390.692 204.746C390.416 204.29 390.038 203.948 389.558 203.72C389.09 203.48 388.568 203.36 387.992 203.36C387.164 203.36 386.456 203.624 385.868 204.152C385.292 204.68 384.962 205.412 384.878 206.348H391.106ZM394.348 207.05C394.348 206.03 394.552 205.142 394.96 204.386C395.368 203.618 395.932 203.024 396.652 202.604C397.384 202.184 398.218 201.974 399.154 201.974C400.366 201.974 401.362 202.268 402.142 202.856C402.934 203.444 403.456 204.26 403.708 205.304H401.944C401.776 204.704 401.446 204.23 400.954 203.882C400.474 203.534 399.874 203.36 399.154 203.36C398.218 203.36 397.462 203.684 396.886 204.332C396.31 204.968 396.022 205.874 396.022 207.05C396.022 208.238 396.31 209.156 396.886 209.804C397.462 210.452 398.218 210.776 399.154 210.776C399.874 210.776 400.474 210.608 400.954 210.272C401.434 209.936 401.764 209.456 401.944 208.832H403.708C403.444 209.84 402.916 210.65 402.124 211.262C401.332 211.862 400.342 212.162 399.154 212.162C398.218 212.162 397.384 211.952 396.652 211.532C395.932 211.112 395.368 210.518 394.96 209.75C394.552 208.982 394.348 208.082 394.348 207.05ZM407.892 203.486V209.3C407.892 209.78 407.994 210.122 408.198 210.326C408.402 210.518 408.756 210.614 409.26 210.614H410.466V212H408.99C408.078 212 407.394 211.79 406.938 211.37C406.482 210.95 406.254 210.26 406.254 209.3V203.486H404.976V202.136H406.254V199.652H407.892V202.136H410.466V203.486H407.892ZM413.296 200.534C412.984 200.534 412.72 200.426 412.504 200.21C412.288 199.994 412.18 199.73 412.18 199.418C412.18 199.106 412.288 198.842 412.504 198.626C412.72 198.41 412.984 198.302 413.296 198.302C413.596 198.302 413.848 198.41 414.052 198.626C414.268 198.842 414.376 199.106 414.376 199.418C414.376 199.73 414.268 199.994 414.052 200.21C413.848 200.426 413.596 200.534 413.296 200.534ZM414.088 202.136V212H412.45V202.136H414.088ZM420.552 210.488L423.612 202.136H425.358L421.488 212H419.58L415.71 202.136H417.474L420.552 210.488ZM435.97 206.69C435.97 207.002 435.952 207.332 435.916 207.68H428.032C428.092 208.652 428.422 209.414 429.022 209.966C429.634 210.506 430.372 210.776 431.236 210.776C431.944 210.776 432.532 210.614 433 210.29C433.48 209.954 433.816 209.51 434.008 208.958H435.772C435.508 209.906 434.98 210.68 434.188 211.28C433.396 211.868 432.412 212.162 431.236 212.162C430.3 212.162 429.46 211.952 428.716 211.532C427.984 211.112 427.408 210.518 426.988 209.75C426.568 208.97 426.358 208.07 426.358 207.05C426.358 206.03 426.562 205.136 426.97 204.368C427.378 203.6 427.948 203.012 428.68 202.604C429.424 202.184 430.276 201.974 431.236 201.974C432.172 201.974 433 202.178 433.72 202.586C434.44 202.994 434.992 203.558 435.376 204.278C435.772 204.986 435.97 205.79 435.97 206.69ZM434.278 206.348C434.278 205.724 434.14 205.19 433.864 204.746C433.588 204.29 433.21 203.948 432.73 203.72C432.262 203.48 431.74 203.36 431.164 203.36C430.336 203.36 429.628 203.624 429.04 204.152C428.464 204.68 428.134 205.412 428.05 206.348H434.278ZM439.77 198.68V212H438.132V198.68H439.77ZM451.058 202.136L445.118 216.644H443.426L445.37 211.892L441.392 202.136H443.21L446.306 210.128L449.366 202.136H451.058ZM453.226 212.108C452.914 212.108 452.65 212 452.434 211.784C452.218 211.568 452.11 211.304 452.11 210.992C452.11 210.68 452.218 210.416 452.434 210.2C452.65 209.984 452.914 209.876 453.226 209.876C453.526 209.876 453.778 209.984 453.982 210.2C454.198 210.416 454.306 210.68 454.306 210.992C454.306 211.304 454.198 211.568 453.982 211.784C453.778 212 453.526 212.108 453.226 212.108Z" fill="white"/>
<path d="M19.988 10.438V28.678L7.942 10.438H2.622V37H7.942V18.798L19.988 37H25.308V10.438H19.988ZM40.3694 19.976C43.1054 19.976 45.3094 21.724 45.3854 24.498H35.3914C35.8094 21.61 37.8234 19.976 40.3694 19.976ZM50.3634 30.388H44.6254C43.9414 31.794 42.6874 32.934 40.4074 32.934C37.7474 32.934 35.6194 31.186 35.3534 28.07H50.7434C50.8574 27.386 50.8954 26.702 50.8954 26.018C50.8954 19.748 46.6014 15.606 40.5214 15.606C34.2894 15.606 29.9574 19.824 29.9574 26.474C29.9574 33.086 34.4034 37.342 40.5214 37.342C45.7274 37.342 49.2234 34.264 50.3634 30.388ZM53.2965 15.948L61.0485 37H67.5085L75.2985 15.948H69.6365L64.3165 32.098L58.9965 15.948H53.2965ZM88.0905 19.976C90.8265 19.976 93.0305 21.724 93.1065 24.498H83.1125C83.5305 21.61 85.5445 19.976 88.0905 19.976ZM98.0845 30.388H92.3465C91.6625 31.794 90.4085 32.934 88.1285 32.934C85.4685 32.934 83.3405 31.186 83.0745 28.07H98.4645C98.5785 27.386 98.6165 26.702 98.6165 26.018C98.6165 19.748 94.3225 15.606 88.2425 15.606C82.0105 15.606 77.6785 19.824 77.6785 26.474C77.6785 33.086 82.1245 37.342 88.2425 37.342C93.4485 37.342 96.9445 34.264 98.0845 30.388ZM108.58 26.512C108.58 22.446 110.48 21.23 113.634 21.23H115.04V15.644C112.114 15.644 109.91 17.05 108.58 19.216V15.948H103.26V37H108.58V26.512ZM129.198 37H134.518V25.79H142.992V21.572H134.518V14.77H145.576V10.476H129.198V37ZM159.152 19.976C161.888 19.976 164.092 21.724 164.168 24.498H154.174C154.592 21.61 156.606 19.976 159.152 19.976ZM169.146 30.388H163.408C162.724 31.794 161.47 32.934 159.19 32.934C156.53 32.934 154.402 31.186 154.136 28.07H169.526C169.64 27.386 169.678 26.702 169.678 26.018C169.678 19.748 165.384 15.606 159.304 15.606C153.072 15.606 148.74 19.824 148.74 26.474C148.74 33.086 153.186 37.342 159.304 37.342C164.51 37.342 168.006 34.264 169.146 30.388ZM183.365 19.976C186.101 19.976 188.305 21.724 188.381 24.498H178.387C178.805 21.61 180.819 19.976 183.365 19.976ZM193.359 30.388H187.621C186.937 31.794 185.683 32.934 183.403 32.934C180.743 32.934 178.615 31.186 178.349 28.07H193.739C193.853 27.386 193.891 26.702 193.891 26.018C193.891 19.748 189.597 15.606 183.517 15.606C177.285 15.606 172.953 19.824 172.953 26.474C172.953 33.086 177.399 37.342 183.517 37.342C188.723 37.342 192.219 34.264 193.359 30.388ZM198.534 37H203.854V8.88H198.534V37ZM236.367 37H241.687V10.476H236.367V21.382H225.005V10.476H219.685V37H225.005V25.714H236.367V37ZM267.557 15.948H262.199V27.538C262.199 30.92 260.375 32.744 257.487 32.744C254.675 32.744 252.813 30.92 252.813 27.538V15.948H247.493V28.298C247.493 34.074 251.027 37.266 255.929 37.266C258.551 37.266 260.869 36.126 262.199 34.34V37H267.557V15.948ZM288.31 37H293.63V24.65C293.63 18.836 290.134 15.644 285.232 15.644C282.534 15.644 280.254 16.784 278.886 18.57V15.948H273.566V37H278.886V25.372C278.886 21.99 280.748 20.166 283.636 20.166C286.448 20.166 288.31 21.99 288.31 25.372V37ZM298.082 26.398C298.082 32.972 302.338 37.342 307.696 37.342C311.002 37.342 313.396 35.708 314.65 33.884V37.152C314.65 41.066 312.37 42.738 309.444 42.738C306.784 42.738 304.808 41.484 304.276 39.584H298.994C299.526 44.41 303.668 47.374 309.596 47.374C316.512 47.374 320.008 42.852 320.008 37.152V15.948H314.65V18.95C313.396 17.126 311.002 15.606 307.696 15.606C302.338 15.606 298.082 19.824 298.082 26.398ZM314.65 26.474C314.65 30.464 311.99 32.668 309.064 32.668C306.214 32.668 303.516 30.388 303.516 26.398C303.516 22.408 306.214 20.28 309.064 20.28C311.99 20.28 314.65 22.484 314.65 26.474ZM331.283 26.512C331.283 22.446 333.183 21.23 336.337 21.23H337.743V15.644C334.817 15.644 332.613 17.05 331.283 19.216V15.948H325.963V37H331.283V26.512ZM351.055 30.654L345.621 15.948H339.655L348.091 36.468L343.531 46.956H349.193L362.227 15.948H356.565L351.055 30.654ZM367.641 28.374H372.125L372.733 10.02H366.995L367.641 28.374ZM373.227 34.15C373.227 32.402 371.859 31.034 369.997 31.034C368.059 31.034 366.691 32.402 366.691 34.15C366.691 35.898 368.059 37.266 369.997 37.266C371.859 37.266 373.227 35.898 373.227 34.15ZM11.894 57.476H2.622V84H11.894C20.368 84 25.878 78.794 25.878 70.776C25.878 62.72 20.368 57.476 11.894 57.476ZM7.942 79.478V61.96H11.704C17.29 61.96 20.444 65.266 20.444 70.776C20.444 76.286 17.29 79.478 11.704 79.478H7.942ZM50.9503 73.474C50.9503 66.824 46.2003 62.606 40.1203 62.606C34.0403 62.606 29.2903 66.824 29.2903 73.474C29.2903 80.086 33.8883 84.342 39.9683 84.342C46.0863 84.342 50.9503 80.086 50.9503 73.474ZM34.6863 73.474C34.6863 69.256 37.2323 67.242 40.0443 67.242C42.8563 67.242 45.4783 69.256 45.4783 73.474C45.4783 77.654 42.7803 79.706 39.9683 79.706C37.1183 79.706 34.6863 77.654 34.6863 73.474ZM59.4507 84H65.2267L69.0647 69.294L72.9027 84H78.6407L84.7967 62.948H79.7047L75.9807 78.946L72.0287 62.948H66.4047L62.3767 78.984L58.6527 62.948H53.2567L59.4507 84ZM103.179 84H108.499V71.65C108.499 65.836 105.003 62.644 100.101 62.644C97.4032 62.644 95.1232 63.784 93.7552 65.57V62.948H88.4352V84H93.7552V72.372C93.7552 68.99 95.6172 67.166 98.5052 67.166C101.317 67.166 103.179 68.99 103.179 72.372V84ZM114.318 84H119.638V55.88H114.318V84ZM145.984 73.474C145.984 66.824 141.234 62.606 135.154 62.606C129.074 62.606 124.324 66.824 124.324 73.474C124.324 80.086 128.922 84.342 135.002 84.342C141.12 84.342 145.984 80.086 145.984 73.474ZM129.72 73.474C129.72 69.256 132.266 67.242 135.078 67.242C137.89 67.242 140.512 69.256 140.512 73.474C140.512 77.654 137.814 79.706 135.002 79.706C132.152 79.706 129.72 77.654 129.72 73.474ZM149.279 73.398C149.279 79.972 153.535 84.342 158.855 84.342C162.199 84.342 164.593 82.746 165.847 80.922V84H171.205V62.948H165.847V65.95C164.593 64.202 162.275 62.606 158.893 62.606C153.535 62.606 149.279 66.824 149.279 73.398ZM165.847 73.474C165.847 77.464 163.187 79.668 160.261 79.668C157.411 79.668 154.713 77.388 154.713 73.398C154.713 69.408 157.411 67.28 160.261 67.28C163.187 67.28 165.847 69.484 165.847 73.474ZM175.793 73.398C175.793 79.972 180.049 84.342 185.407 84.342C188.713 84.342 191.069 82.822 192.323 80.884V84H197.719V55.88H192.323V65.874C190.879 63.898 188.219 62.606 185.445 62.606C180.049 62.606 175.793 66.824 175.793 73.398ZM192.361 73.474C192.361 77.464 189.701 79.668 186.775 79.668C183.925 79.668 181.227 77.388 181.227 73.398C181.227 69.408 183.925 67.28 186.775 67.28C189.701 67.28 192.361 69.484 192.361 73.474ZM239.367 70.662C239.367 62.72 233.363 57.096 225.801 57.096C218.315 57.096 212.197 62.72 212.197 70.662C212.197 78.642 218.315 84.266 225.801 84.266C233.325 84.266 239.367 78.642 239.367 70.662ZM217.669 70.662C217.669 65.266 220.975 61.884 225.801 61.884C230.589 61.884 233.895 65.266 233.895 70.662C233.895 76.058 230.589 79.516 225.801 79.516C220.975 79.516 217.669 76.058 217.669 70.662ZM263.959 62.948H258.601V74.538C258.601 77.92 256.777 79.744 253.889 79.744C251.077 79.744 249.215 77.92 249.215 74.538V62.948H243.895V75.298C243.895 81.074 247.429 84.266 252.331 84.266C254.953 84.266 257.271 83.126 258.601 81.34V84H263.959V62.948ZM275.288 73.512C275.288 69.446 277.188 68.23 280.342 68.23H281.748V62.644C278.822 62.644 276.618 64.05 275.288 66.216V62.948H269.968V84H275.288V73.512ZM295.906 84H301.226V66.748L308.37 84H312.398L319.504 66.748V84H324.824V57.476H318.82L310.384 77.198L301.948 57.476H295.906V84ZM351.174 73.474C351.174 66.824 346.424 62.606 340.344 62.606C334.264 62.606 329.514 66.824 329.514 73.474C329.514 80.086 334.112 84.342 340.192 84.342C346.31 84.342 351.174 80.086 351.174 73.474ZM334.91 73.474C334.91 69.256 337.456 67.242 340.268 67.242C343.08 67.242 345.702 69.256 345.702 73.474C345.702 77.654 343.004 79.706 340.192 79.706C337.342 79.706 334.91 77.654 334.91 73.474ZM361.156 66.026V55.88H355.836V84H361.156V80.998C362.448 82.822 364.804 84.342 368.11 84.342C373.506 84.342 377.724 79.972 377.724 73.398C377.724 66.824 373.506 62.606 368.11 62.606C364.918 62.606 362.448 64.088 361.156 66.026ZM372.29 73.398C372.29 77.388 369.592 79.668 366.704 79.668C363.854 79.668 361.156 77.464 361.156 73.474C361.156 69.484 363.854 67.28 366.704 67.28C369.592 67.28 372.29 69.408 372.29 73.398ZM382.35 84H387.67V62.948H382.35V84ZM385.048 60.44C386.91 60.44 388.316 59.072 388.316 57.324C388.316 55.576 386.91 54.208 385.048 54.208C383.148 54.208 381.78 55.576 381.78 57.324C381.78 59.072 383.148 60.44 385.048 60.44ZM393.687 84H399.007V55.88H393.687V84ZM414.067 66.976C416.803 66.976 419.007 68.724 419.083 71.498H409.089C409.507 68.61 411.521 66.976 414.067 66.976ZM424.061 77.388H418.323C417.639 78.794 416.385 79.934 414.105 79.934C411.445 79.934 409.317 78.186 409.051 75.07H424.441C424.555 74.386 424.593 73.702 424.593 73.018C424.593 66.748 420.299 62.606 414.219 62.606C407.987 62.606 403.655 66.824 403.655 73.474C403.655 80.086 408.101 84.342 414.219 84.342C419.425 84.342 422.921 81.264 424.061 77.388ZM457.063 84H462.687L453.149 57.438H446.955L437.417 84H443.003L444.751 78.946H455.315L457.063 84ZM453.871 74.69H446.195L450.033 63.594L453.871 74.69ZM472.332 65.988V62.948H467.012V94.032H472.332V80.998C473.624 82.708 475.98 84.342 479.286 84.342C484.682 84.342 488.9 79.972 488.9 73.398C488.9 66.824 484.682 62.606 479.286 62.606C476.018 62.606 473.586 64.202 472.332 65.988ZM483.466 73.398C483.466 77.388 480.768 79.668 477.88 79.668C475.03 79.668 472.332 77.464 472.332 73.474C472.332 69.484 475.03 67.28 477.88 67.28C480.768 67.28 483.466 69.408 483.466 73.398ZM498.846 65.988V62.948H493.526V94.032H498.846V80.998C500.138 82.708 502.494 84.342 505.8 84.342C511.196 84.342 515.414 79.972 515.414 73.398C515.414 66.824 511.196 62.606 505.8 62.606C502.532 62.606 500.1 64.202 498.846 65.988ZM509.98 73.398C509.98 77.388 507.282 79.668 504.394 79.668C501.544 79.668 498.846 77.464 498.846 73.474C498.846 69.484 501.544 67.28 504.394 67.28C507.282 67.28 509.98 69.408 509.98 73.398ZM28.5 117.662C28.5 109.72 22.496 104.096 14.934 104.096C7.448 104.096 1.33 109.72 1.33 117.662C1.33 125.642 7.448 131.266 14.934 131.266C22.458 131.266 28.5 125.642 28.5 117.662ZM6.802 117.662C6.802 112.266 10.108 108.884 14.934 108.884C19.722 108.884 23.028 112.266 23.028 117.662C23.028 123.058 19.722 126.516 14.934 126.516C10.108 126.516 6.802 123.058 6.802 117.662ZM38.5379 120.512C38.5379 116.446 40.4379 115.23 43.5919 115.23H44.9979V109.644C42.0719 109.644 39.8679 111.05 38.5379 113.216V109.948H33.2179V131H38.5379V120.512ZM47.9732 120.398C47.9732 126.972 52.2292 131.342 57.5872 131.342C60.8932 131.342 63.2492 129.822 64.5032 127.884V131H69.8992V102.88H64.5032V112.874C63.0592 110.898 60.3992 109.606 57.6252 109.606C52.2292 109.606 47.9732 113.824 47.9732 120.398ZM64.5412 120.474C64.5412 124.464 61.8812 126.668 58.9552 126.668C56.1052 126.668 53.4072 124.388 53.4072 120.398C53.4072 116.408 56.1052 114.28 58.9552 114.28C61.8812 114.28 64.5412 116.484 64.5412 120.474ZM84.8991 113.976C87.6351 113.976 89.8391 115.724 89.9151 118.498H79.9211C80.3391 115.61 82.3531 113.976 84.8991 113.976ZM94.8931 124.388H89.1551C88.4711 125.794 87.2171 126.934 84.9371 126.934C82.2771 126.934 80.1491 125.186 79.8831 122.07H95.2731C95.3871 121.386 95.4251 120.702 95.4251 120.018C95.4251 113.748 91.1311 109.606 85.0511 109.606C78.8191 109.606 74.4871 113.824 74.4871 120.474C74.4871 127.086 78.9331 131.342 85.0511 131.342C90.2571 131.342 93.7531 128.264 94.8931 124.388ZM105.388 120.512C105.388 116.446 107.288 115.23 110.442 115.23H111.848V109.644C108.922 109.644 106.718 111.05 105.388 113.216V109.948H100.068V131H105.388V120.512ZM135.278 104.476H126.006V131H135.278C143.752 131 149.262 125.794 149.262 117.776C149.262 109.72 143.752 104.476 135.278 104.476ZM131.326 126.478V108.96H135.088C140.674 108.96 143.828 112.266 143.828 117.776C143.828 123.286 140.674 126.478 135.088 126.478H131.326ZM163.049 113.976C165.785 113.976 167.989 115.724 168.065 118.498H158.071C158.489 115.61 160.503 113.976 163.049 113.976ZM173.043 124.388H167.305C166.621 125.794 165.367 126.934 163.087 126.934C160.427 126.934 158.299 125.186 158.033 122.07H173.423C173.537 121.386 173.575 120.702 173.575 120.018C173.575 113.748 169.281 109.606 163.201 109.606C156.969 109.606 152.637 113.824 152.637 120.474C152.637 127.086 157.083 131.342 163.201 131.342C168.407 131.342 171.903 128.264 173.043 124.388ZM178.218 131H183.538V102.88H178.218V131ZM189.554 131H194.874V109.948H189.554V131ZM192.252 107.44C194.114 107.44 195.52 106.072 195.52 104.324C195.52 102.576 194.114 101.208 192.252 101.208C190.352 101.208 188.984 102.576 188.984 104.324C188.984 106.072 190.352 107.44 192.252 107.44ZM199.522 120.474C199.522 127.086 203.854 131.342 209.934 131.342C215.178 131.342 218.712 128.378 219.852 123.894H214.114C213.468 125.794 212.1 126.782 209.896 126.782C206.932 126.782 204.956 124.578 204.956 120.474C204.956 116.37 206.932 114.128 209.896 114.128C212.1 114.128 213.506 115.268 214.114 117.054H219.852C218.712 112.342 215.178 109.606 209.934 109.606C203.854 109.606 199.522 113.862 199.522 120.474ZM224.509 131H229.829V109.948H224.509V131ZM227.207 107.44C229.069 107.44 230.475 106.072 230.475 104.324C230.475 102.576 229.069 101.208 227.207 101.208C225.307 101.208 223.939 102.576 223.939 104.324C223.939 106.072 225.307 107.44 227.207 107.44ZM256.176 120.474C256.176 113.824 251.426 109.606 245.346 109.606C239.266 109.606 234.516 113.824 234.516 120.474C234.516 127.086 239.114 131.342 245.194 131.342C251.312 131.342 256.176 127.086 256.176 120.474ZM239.912 120.474C239.912 116.256 242.458 114.242 245.27 114.242C248.082 114.242 250.704 116.256 250.704 120.474C250.704 124.654 248.006 126.706 245.194 126.706C242.344 126.706 239.912 124.654 239.912 120.474ZM280.712 109.948H275.354V121.538C275.354 124.92 273.53 126.744 270.642 126.744C267.83 126.744 265.968 124.92 265.968 121.538V109.948H260.648V122.298C260.648 128.074 264.182 131.266 269.084 131.266C271.706 131.266 274.024 130.126 275.354 128.34V131H280.712V109.948ZM303.061 124.996C302.909 117.282 291.243 119.676 291.243 115.838C291.243 114.622 292.269 113.824 294.245 113.824C296.335 113.824 297.627 114.926 297.779 116.56H302.871C302.567 112.38 299.489 109.606 294.397 109.606C289.191 109.606 286.075 112.418 286.075 115.914C286.075 123.628 297.969 121.234 297.969 124.996C297.969 126.212 296.829 127.162 294.739 127.162C292.611 127.162 291.129 125.946 290.939 124.35H285.581C285.809 128.264 289.495 131.342 294.777 131.342C299.907 131.342 303.061 128.606 303.061 124.996ZM318.003 131H323.323V119.79H331.797V115.572H323.323V108.77H334.381V104.476H318.003V131ZM359.243 120.474C359.243 113.824 354.493 109.606 348.413 109.606C342.333 109.606 337.583 113.824 337.583 120.474C337.583 127.086 342.181 131.342 348.261 131.342C354.379 131.342 359.243 127.086 359.243 120.474ZM342.979 120.474C342.979 116.256 345.525 114.242 348.337 114.242C351.149 114.242 353.771 116.256 353.771 120.474C353.771 124.654 351.073 126.706 348.261 126.706C345.411 126.706 342.979 124.654 342.979 120.474ZM384.236 120.474C384.236 113.824 379.486 109.606 373.406 109.606C367.326 109.606 362.576 113.824 362.576 120.474C362.576 127.086 367.174 131.342 373.254 131.342C379.372 131.342 384.236 127.086 384.236 120.474ZM367.972 120.474C367.972 116.256 370.518 114.242 373.33 114.242C376.142 114.242 378.764 116.256 378.764 120.474C378.764 124.654 376.066 126.706 373.254 126.706C370.404 126.706 367.972 124.654 367.972 120.474ZM387.53 120.398C387.53 126.972 391.786 131.342 397.144 131.342C400.45 131.342 402.806 129.822 404.06 127.884V131H409.456V102.88H404.06V112.874C402.616 110.898 399.956 109.606 397.182 109.606C391.786 109.606 387.53 113.824 387.53 120.398ZM404.098 120.474C404.098 124.464 401.438 126.668 398.512 126.668C395.662 126.668 392.964 124.388 392.964 120.398C392.964 116.408 395.662 114.28 398.512 114.28C401.438 114.28 404.098 116.484 404.098 120.474Z" fill="white"/>
<defs>
<filter id="filter0_ii_3119_5173" x="208.84" y="259.37" width="26.2585" height="29.253" filterUnits="userSpaceOnUse" color-interpolation-filters="sRGB">
<feFlood flood-opacity="0" result="BackgroundImageFix"/>
<feBlend mode="normal" in="SourceGraphic" in2="BackgroundImageFix" result="shape"/>
<feColorMatrix in="SourceAlpha" type="matrix" values="0 0 0 0 0 0 0 0 0 0 0 0 0 0 0 0 0 0 127 0" result="hardAlpha"/>
<feOffset dy="-0.15"/>
<feComposite in2="hardAlpha" operator="arithmetic" k2="-1" k3="1"/>
<feColorMatrix type="matrix" values="0 0 0 0 0 0 0 0 0 0 0 0 0 0 0 0 0 0 0.12 0"/>
<feBlend mode="normal" in2="shape" result="effect1_innerShadow_3119_5173"/>
<feColorMatrix in="SourceAlpha" type="matrix" values="0 0 0 0 0 0 0 0 0 0 0 0 0 0 0 0 0 0 127 0" result="hardAlpha"/>
<feOffset dy="0.15"/>
<feComposite in2="hardAlpha" operator="arithmetic" k2="-1" k3="1"/>
<feColorMatrix type="matrix" values="0 0 0 0 1 0 0 0 0 1 0 0 0 0 1 0 0 0 0.25 0"/>
<feBlend mode="normal" in2="effect1_innerShadow_3119_5173" result="effect2_innerShadow_3119_5173"/>
</filter>
<filter id="filter1_i_3119_5173" x="209.367" y="273.997" width="18.9771" height="14.6265" filterUnits="userSpaceOnUse" color-interpolation-filters="sRGB">
<feFlood flood-opacity="0" result="BackgroundImageFix"/>
<feBlend mode="normal" in="SourceGraphic" in2="BackgroundImageFix" result="shape"/>
<feColorMatrix in="SourceAlpha" type="matrix" values="0 0 0 0 0 0 0 0 0 0 0 0 0 0 0 0 0 0 127 0" result="hardAlpha"/>
<feOffset dy="-0.15"/>
<feComposite in2="hardAlpha" operator="arithmetic" k2="-1" k3="1"/>
<feColorMatrix type="matrix" values="0 0 0 0 0 0 0 0 0 0 0 0 0 0 0 0 0 0 0.08 0"/>
<feBlend mode="normal" in2="shape" result="effect1_innerShadow_3119_5173"/>
</filter>
<linearGradient id="paint0_linear_3119_5173" x1="222.292" y1="261.153" x2="203.205" y2="280.239" gradientUnits="userSpaceOnUse">
<stop stop-color="#00A0FF"/>
<stop offset="0.0066" stop-color="#00A1FF"/>
<stop offset="0.2601" stop-color="#00BEFF"/>
<stop offset="0.5122" stop-color="#00D2FF"/>
<stop offset="0.7604" stop-color="#00DFFF"/>
<stop offset="1" stop-color="#00E3FF"/>
</linearGradient>
<linearGradient id="paint1_linear_3119_5173" x1="235.975" y1="273.996" x2="208.457" y2="273.996" gradientUnits="userSpaceOnUse">
<stop stop-color="#FFE000"/>
<stop offset="0.4087" stop-color="#FFBD00"/>
<stop offset="0.7754" stop-color="#FFA500"/>
<stop offset="1" stop-color="#FF9C00"/>
</linearGradient>
<linearGradient id="paint2_linear_3119_5173" x1="225.735" y1="276.605" x2="199.852" y2="302.489" gradientUnits="userSpaceOnUse">
<stop stop-color="#FF3A44"/>
<stop offset="1" stop-color="#C31162"/>
</linearGradient>
<linearGradient id="paint3_linear_3119_5173" x1="205.798" y1="251.45" x2="217.355" y2="263.007" gradientUnits="userSpaceOnUse">
<stop stop-color="#32A071"/>
<stop offset="0.0685" stop-color="#2DA771"/>
<stop offset="0.4762" stop-color="#15CF74"/>
<stop offset="0.8009" stop-color="#06E775"/>
<stop offset="1" stop-color="#00F076"/>
</linearGradient>
</defs>
</svg>
